<svg width="24" height="24" viewBox="0 0 24 24" fill="none" xmlns="http://www.w3.org/2000/svg">
<path fill-rule="evenodd" clip-rule="evenodd" d="M5.05263 2.8304L5.00537 2.95172C4.67994 3.78721 3.98654 4.44595 3.10708 4.75511L2.97937 4.8L3.10708 4.84489C3.98654 5.15405 4.67994 5.81279 5.00537 6.64828L5.05263 6.7696L5.09989 6.64828C5.42532 5.81279 6.11872 5.15405 6.99819 4.84489L7.1259 4.8L6.99819 4.75511C6.11872 4.44595 5.42532 3.78721 5.09989 2.95172L5.05263 2.8304ZM15.0675 8.15795C14.8816 7.68068 14.171 7.68069 13.9851 8.15795L12.8828 10.9879C12.4406 12.1233 11.4982 13.0186 10.303 13.4387L7.32415 14.4859C6.82177 14.6625 6.82177 15.3375 7.32415 15.5141L10.303 16.5613C11.4982 16.9814 12.4406 17.8767 12.8828 19.0121L13.9851 21.8421C14.171 22.3193 14.8816 22.3193 15.0675 21.8421L16.1698 19.0121C16.612 17.8767 17.5544 16.9814 18.7496 16.5613L21.7285 15.5141C22.2309 15.3375 22.2309 14.6625 21.7285 14.4859L18.7496 13.4387C17.5544 13.0186 16.612 12.1233 16.1698 10.9879L15.0675 8.15795ZM6.28898 0.81775C5.86429 -0.272583 4.24098 -0.272584 3.81628 0.817749L3.22839 2.32706C3.09487 2.66985 2.81037 2.94013 2.44953 3.06697L0.860789 3.62547C-0.286929 4.02893 -0.28693 5.57107 0.860789 5.97453L2.44953 6.53303C2.81037 6.65987 3.09487 6.93015 3.22839 7.27294L3.81628 8.78225C4.24097 9.87258 5.86429 9.87259 6.28898 8.78225L6.87687 7.27294C7.01039 6.93015 7.29489 6.65987 7.65573 6.53303L9.24447 5.97453C10.3922 5.57107 10.3922 4.02893 9.24447 3.62547L7.65573 3.06697C7.29489 2.94013 7.01039 2.66985 6.87687 2.32706L6.28898 0.81775ZM16.8445 7.53328C16.0482 5.48891 13.0045 5.48891 12.2082 7.53328L11.1059 10.3632C10.8555 11.006 10.3221 11.5127 9.64551 11.7506L6.66661 12.7978C4.51464 13.5542 4.51464 16.4458 6.66661 17.2023L9.6455 18.2494C10.3221 18.4873 10.8555 18.994 11.1059 19.6368L12.2082 22.4667C13.0045 24.5111 16.0482 24.5111 16.8445 22.4667L17.9468 19.6368C18.1971 18.994 18.7306 18.4873 19.4071 18.2494L22.386 17.2023C24.538 16.4458 24.538 13.5542 22.386 12.7978L19.4071 11.7506C18.7306 11.5127 18.1971 11.006 17.9468 10.3632L16.8445 7.53328Z" fill="#E45AA7"/>
</svg>
