<svg width="20" height="18" viewBox="0 0 20 18" fill="none" xmlns="http://www.w3.org/2000/svg">
<path fill-rule="evenodd" clip-rule="evenodd" d="M10 14C12.2091 14 14 12.2091 14 10C14 7.79086 12.2091 6 10 6C7.79086 6 6 7.79086 6 10C6 12.2091 7.79086 14 10 14ZM10 12.5C11.3807 12.5 12.5 11.3807 12.5 10C12.5 8.61929 11.3807 7.5 10 7.5C8.61929 7.5 7.5 8.61929 7.5 10C7.5 11.3807 8.61929 12.5 10 12.5Z" fill="#E45A92"/>
<path d="M14 6C14.5523 6 15 5.55228 15 5C15 4.44772 14.5523 4 14 4C13.4477 4 13 4.44772 13 5C13 5.55228 13.4477 6 14 6Z" fill="#E45A92"/>
<path fill-rule="evenodd" clip-rule="evenodd" d="M16.0387 2.42127C16.4444 3.03738 17.0538 3.49115 17.7604 3.70312C19.0897 4.10191 20 5.3254 20 6.7132V14C20 16.2091 18.2091 18 16 18H4C1.79086 18 0 16.2091 0 14V6.7132C0 5.3254 0.910314 4.10191 2.23959 3.70312C2.94615 3.49115 3.55563 3.03738 3.9613 2.42127L4.37019 1.80027C5.11014 0.67648 6.36551 0 7.71103 0H12.289C13.6345 0 14.8899 0.67648 15.6298 1.80027L16.0387 2.42127ZM16 16.5C17.3807 16.5 18.5 15.3807 18.5 14V6.7132C18.5 5.98781 18.0242 5.3483 17.3294 5.13986C16.2856 4.82672 15.3852 4.15636 14.7859 3.24617L14.377 2.62517C13.9145 1.9228 13.1299 1.5 12.289 1.5H7.71103C6.87008 1.5 6.08547 1.9228 5.62301 2.62517L5.21412 3.24617C4.61482 4.15636 3.71443 4.82672 2.67061 5.13986C1.97581 5.3483 1.5 5.98781 1.5 6.7132V14C1.5 15.3807 2.61929 16.5 4 16.5H16Z" fill="#E45A92"/>
</svg>
