<svg width="24" height="24" viewBox="0 0 24 24" fill="none" xmlns="http://www.w3.org/2000/svg">
<path fill-rule="evenodd" clip-rule="evenodd" d="M3.05751 6.20173L3.91694 4.48286C4.52744 3.26186 6.15472 2.99779 7.12001 3.96307L9.40174 6.2448C10.0105 6.85352 10.1614 7.78347 9.77638 8.55345L9.51365 9.07891C9.09095 9.92431 9.08392 10.9247 9.57646 11.7314C9.96206 12.363 10.4557 13.0883 10.9474 13.5799C11.3711 14.0036 11.9684 14.4288 12.5296 14.7851C13.4702 15.3821 14.6701 15.2696 15.5674 14.6093C16.3676 14.0206 17.4805 14.1173 18.1671 14.8352L20.1265 16.8841C21.0571 17.8571 20.7798 19.4531 19.5756 20.0553L17.7992 20.9434C16.4187 21.6337 14.8546 21.9269 13.3954 21.4239C11.6427 20.8198 9.13081 19.6118 6.76 17.241C4.38918 14.8701 3.1812 12.3583 2.57702 10.6055C2.07403 9.14636 2.36726 7.58222 3.05751 6.20173ZM4.39915 6.87255L5.25858 5.15368C5.41121 4.84843 5.81803 4.78241 6.05935 5.02373L8.34108 7.30546C8.49326 7.45764 8.53099 7.69013 8.43474 7.88263L8.17201 8.40809C7.54637 9.65937 7.50293 11.2138 8.29622 12.5131C8.69493 13.1661 9.26385 14.0177 9.88671 14.6406C10.4284 15.1822 11.1366 15.6775 11.7258 16.0515C13.2556 17.0226 15.1278 16.7951 16.4564 15.8175C16.6493 15.6756 16.9175 15.6989 17.083 15.872L19.0425 17.9208C19.2751 18.1641 19.2058 18.5631 18.9047 18.7136L17.1284 19.6018C15.977 20.1775 14.8427 20.3362 13.8843 20.0058C12.2932 19.4574 9.9947 18.3543 7.82066 16.1803C5.64662 14.0063 4.54357 11.7077 3.99513 10.1167C3.66474 9.15823 3.82344 8.02397 4.39915 6.87255Z" fill="#3E1E68"/>
</svg>
