<svg width="21" height="21" viewBox="0 0 21 21" fill="none" xmlns="http://www.w3.org/2000/svg">
<path opacity="0.987" fill-rule="evenodd" clip-rule="evenodd" d="M8.93886 0.091125C10.0264 -0.030375 10.6699 -0.030375 11.8384 0.091125C13.9068 0.397268 15.8242 1.35335 17.3134 2.82113C16.307 3.77233 15.314 4.73742 14.3344 5.71612C12.4584 4.12612 10.3644 3.75912 8.05236 4.61513C6.35636 5.39512 5.17536 6.65913 4.50936 8.40713C3.42102 7.59687 2.34686 6.76774 1.28736 5.92013C1.21373 5.88137 1.12964 5.86718 1.04736 5.87962C2.73036 2.63462 5.36036 0.704625 8.93736 0.0896249" fill="#F44336"/>
<path opacity="0.997" fill-rule="evenodd" clip-rule="evenodd" d="M1.04438 5.87978C1.12938 5.86678 1.20988 5.88028 1.28588 5.92028C2.34538 6.7679 3.41954 7.59703 4.50788 8.40728C4.33662 9.08837 4.22866 9.78383 4.18538 10.4848C4.22238 11.1628 4.32988 11.8283 4.50788 12.4813L1.12538 15.1738C-0.347622 12.0958 -0.374622 8.99778 1.04438 5.87978Z" fill="#FFC107"/>
<path opacity="0.999" fill-rule="evenodd" clip-rule="evenodd" d="M17.1529 18.4341C16.0997 17.5053 14.9971 16.634 13.8499 15.8241C14.9999 15.0121 15.6979 13.8981 15.9439 12.4821H10.3084V8.56863C13.5584 8.54163 16.8069 8.56913 20.0539 8.65113C20.6699 11.9961 19.9584 15.0121 17.9194 17.6991C17.6769 17.9569 17.4201 18.2022 17.1529 18.4341Z" fill="#448AFF"/>
<path opacity="0.993" fill-rule="evenodd" clip-rule="evenodd" d="M4.50787 12.4824C5.73787 15.5394 7.99287 16.9664 11.2729 16.7634C12.1936 16.6568 13.0764 16.3352 13.8499 15.8244C14.9979 16.6364 16.0989 17.5064 17.1529 18.4344C15.4828 19.9351 13.3535 20.8255 11.1124 20.9604C10.6032 21.0011 10.0916 21.0011 9.58237 20.9604C5.76437 20.5104 2.94537 18.5814 1.12537 15.1734L4.50787 12.4824Z" fill="#43A047"/>
</svg>
