<svg xmlns="http://www.w3.org/2000/svg" width="120" height="110" viewBox="0 0 120 110">
  <path id="Icon_awesome-heartbeat" data-name="Icon awesome-heartbeat" d="M75.045,54.26,63.4,78.665a3.677,3.677,0,0,1-6.773-.147L43.289,47.508l-7.031,17.6H14.2L56.976,110.9a4.046,4.046,0,0,0,6.023,0l42.794-45.79H80.224Zm35.974-41.714-.562-.614a29.736,29.736,0,0,0-43.919,0L60,18.954l-6.539-7a29.7,29.7,0,0,0-43.919,0l-.562.589c-11.413,12.227-11.906,31.7-1.711,44.71h24L39.68,36.092a3.691,3.691,0,0,1,6.89-.1L60.21,67.739,71.694,43.7a3.671,3.671,0,0,1,6.7,0l6.468,13.553H112.73c10.195-13.013,9.7-32.483-1.711-44.71Z" transform="translate(0.001 -2.246)" fill="#fff"/>
</svg>
