<svg width="19" height="12" viewBox="0 0 19 12" fill="none" xmlns="http://www.w3.org/2000/svg">
<path d="M8.45665 9.06551C10.0986 10.8265 13.9184 11.0324 15.3712 11.0448C15.734 11.0479 16.0607 10.8606 16.2415 10.546C16.9652 9.28633 18.7185 5.88645 18.0292 3.57951C17.4067 1.49641 15.2215 0.213686 13.3573 1.24561C13.3188 1.26691 13.2799 1.28881 13.2406 1.31133C12.4965 1.73778 12.047 2.4933 11.8164 2.9936C11.6903 3.26692 11.3913 3.43827 11.0918 3.40883C10.5435 3.35493 9.66443 3.36086 8.92032 3.78731C8.88103 3.80983 8.84248 3.8323 8.80464 3.85474C6.97191 4.94151 6.97398 7.47539 8.45665 9.06551Z" fill="#E45A92"/>
<path d="M0.723295 5.34425C1.80661 6.52474 4.28679 6.70006 5.22937 6.72313C5.4648 6.7289 5.67481 6.60854 5.78885 6.4025C6.24544 5.57756 7.34795 3.349 6.87705 1.81754C6.45183 0.434668 5.02101 -0.435374 3.82224 0.227351C3.7975 0.241032 3.7725 0.255105 3.74724 0.26958C3.26888 0.543728 2.98502 1.03834 2.84052 1.36656C2.76157 1.54587 2.56936 1.65603 2.37474 1.63349C2.0185 1.59225 1.44824 1.58713 0.969884 1.86128C0.944625 1.87576 0.919844 1.89021 0.895531 1.90465C-0.282282 2.60394 -0.254907 4.2783 0.723295 5.34425Z" fill="#E45A92"/>
</svg>
