<svg width="29" height="19" viewBox="0 0 29 19" fill="none" xmlns="http://www.w3.org/2000/svg">
<path d="M15.6768 14.5564C13.3622 17.5016 7.46762 18.3216 5.21717 18.5311C4.65508 18.5834 4.12409 18.336 3.80262 17.872C2.51553 16.0141 -0.648132 10.9733 0.118112 7.30666C0.810009 3.99578 4.02946 1.72083 7.05461 3.07618C7.11705 3.10416 7.1802 3.13302 7.24406 3.16277C8.45351 3.72633 9.2494 4.83863 9.67256 5.58397C9.90373 5.99116 10.3897 6.21761 10.8502 6.1327C11.6931 5.97729 13.0567 5.87123 14.2661 6.43479C14.33 6.46454 14.3927 6.49434 14.4543 6.52416C17.4379 7.96866 17.7668 11.897 15.6768 14.5564Z" fill="#E45A92"/>
<path d="M27.1775 7.77392C25.6528 9.74595 21.8309 10.3428 20.3728 10.5022C20.0085 10.542 19.6672 10.3829 19.4634 10.0784C18.6475 8.85946 16.6462 5.5492 17.1754 3.11336C17.6534 0.913861 19.7574 -0.622458 21.7026 0.247781C21.7428 0.265746 21.7834 0.284285 21.8245 0.303415C22.602 0.665701 23.1068 1.39526 23.3739 1.88513C23.5198 2.15275 23.8322 2.29832 24.1309 2.23788C24.6778 2.12725 25.5611 2.04457 26.3386 2.40685C26.3797 2.42598 26.42 2.44515 26.4596 2.46434C28.3771 3.39401 28.5542 5.99323 27.1775 7.77392Z" fill="#E45A92"/>
</svg>
