<svg xmlns="http://www.w3.org/2000/svg" width="82" height="26" viewBox="0 0 82 26">
  <g id="Group_17" data-name="Group 17" transform="translate(-331 254)">
    <text id="Meetisy" transform="translate(331 -235)" fill="#fff" font-size="20" font-family="LucidaHandwriting-Italic, Lucida Handwriting" font-style="italic"><tspan x="0" y="0">Meetisy</tspan></text>
    <path id="Icon_ionic-ios-female" data-name="Icon ionic-ios-female" d="M1.321,7.127A.192.192,0,0,0,1.46,7.07l.646-.646.534.534a.194.194,0,0,0,.139.058.192.192,0,0,0,.139-.058.2.2,0,0,0,0-.277l-.534-.534L3.1,5.425a2.439,2.439,0,1,0-.277-.277l-.721.721-.534-.534a.194.194,0,0,0-.139-.058.192.192,0,0,0-.139.058.2.2,0,0,0,0,.277l.534.534-.646.646a.2.2,0,0,0,.139.335ZM3.239,2.118a2.046,2.046,0,1,1-.6,1.447A2.037,2.037,0,0,1,3.239,2.118Z" transform="translate(348.873 -239.127)" fill="#fff"/>
    <path id="Icon_ionic-ios-male" data-name="Icon ionic-ios-male" d="M5.278.563H4A.159.159,0,0,0,4,.881h.884L3.829,1.945a1.994,1.994,0,1,0,.225.226L5.118,1.113V2a.159.159,0,0,0,.319,0V.722A.158.158,0,0,0,5.278.563ZM4.207,3.456A1.664,1.664,0,1,1,3.72,2.28,1.651,1.651,0,0,1,4.207,3.456Z" transform="translate(368.564 -249.563)" fill="#fff"/>
  </g>
</svg>
