<?xml version="1.0" encoding="UTF-8"?>
<svg version="1.1" xmlns="http://www.w3.org/2000/svg" width="500" height="500">
<path d="M0 0 C1.66666667 0.33333333 3.33333333 0.66666667 5 1 C5.33 0.67 5.66 0.34 6 0 C7.62252492 -0.09886353 9.24947273 -0.12971167 10.875 -0.125 C11.75929688 -0.12757812 12.64359375 -0.13015625 13.5546875 -0.1328125 C16 0 16 0 19 1 C20.32 1 21.64 1 23 1 C23.99 1 24.98 1 26 1 C26 1.66 26 2.32 26 3 C28.97 2.505 28.97 2.505 32 2 C32 2.66 32 3.32 32 4 C32.99 4.061875 33.98 4.12375 35 4.1875 C39.1278963 4.73285215 41.87726461 6.63113958 45.203125 9.0390625 C46.09257812 9.51472656 46.09257812 9.51472656 47 10 C49.95529768 9.19614993 49.95529768 9.19614993 51.875 7.5625 C56.17044563 4.4040841 59.71307825 3.75409666 65 4 C65 3.34 65 2.68 65 2 C73.15854444 -0.00385302 81.1371509 -0.19249871 89.5 -0.1875 C90.56283203 -0.18814453 91.62566406 -0.18878906 92.72070312 -0.18945312 C101.13469061 -0.13038876 101.13469061 -0.13038876 105 1 C105 1.66 105 2.32 105 3 C106.32 2.67 107.64 2.34 109 2 C109.33 2.66 109.66 3.32 110 4 C112.32961443 4.35840222 114.66365343 4.68848712 117 5 C120.0947704 6.03159013 121.68808157 6.68808157 124 9 C125.175625 9.4640625 125.175625 9.4640625 126.375 9.9375 C129.02512018 11.01016769 130.7375721 12.27604664 133 14 C134.49627041 14.96414607 135.99637658 15.92236188 137.5 16.875 C141.01786292 19.2047873 143.69496301 21.39211602 146 25 C146 25.66 146 26.32 146 27 C146.5775 27.2475 147.155 27.495 147.75 27.75 C150.34908658 29.19393699 152.07836838 30.73521987 154 33 C154 33.99 154 34.98 154 36 C154.66 36 155.32 36 156 36 C158.86605751 40.92261787 161.26727749 45.55430068 163 51 C163.7425 52.2375 163.7425 52.2375 164.5 53.5 C167.21328808 58.02214679 168 61.81269276 168 67 C168.33 67.66 168.66 68.32 169 69 C170.23910609 71.47821219 170.22186354 73.26368297 170 76 C169.67 76.33 169.34 76.66 169 77 C168.92680379 79.69654854 168.90757463 82.36691458 168.9375 85.0625 C168.94201172 85.82111328 168.94652344 86.57972656 168.95117188 87.36132812 C168.9629932 89.24091871 168.98092922 91.12046899 169 93 C169.33 93 169.66 93 170 93 C169.85769192 94.41702513 169.71099254 95.8336096 169.5625 97.25 C169.44068359 98.43335938 169.44068359 98.43335938 169.31640625 99.640625 C168.79384268 103.53727189 167.67056176 107.23373825 166.5625 111 C166.31628906 111.845625 166.07007813 112.69125 165.81640625 113.5625 C165.04791336 115.85694769 164.12792602 117.86423134 163 120 C162.67 120.68320313 162.34 121.36640625 162 122.0703125 C161.67 122.74835938 161.34 123.42640625 161 124.125 C160.67 124.80820313 160.34 125.49140625 160 126.1953125 C159 128 159 128 157 130 C156.22535505 131.40334231 155.47849263 132.82215444 154.75 134.25 C152.35232289 138.65404193 149.78723875 141.71772642 146 145 C145.34 145 144.68 145 144 145 C143.67 145.99 143.34 146.98 143 148 C141.40625 149.53515625 141.40625 149.53515625 139.5 151.0625 C136.81893599 153.17721767 136.81893599 153.17721767 135 156 C134.34 156 133.68 156 133 156 C133 160.29 133 164.58 133 169 C133.66 169 134.32 169 135 169 C135.33 171.64 135.66 174.28 136 177 C136.66 177 137.32 177 138 177 C140.8394052 180.67452438 142 182.26886581 142 187 C139.23715968 189.07213024 136.47150431 190.64087886 133 191 C132.34 190.34 131.68 189.68 131 189 C129.63875 189.0309375 129.63875 189.0309375 128.25 189.0625 C119.18326099 188.88813963 111.35744943 180.84234691 105 175 C104.29423828 174.18208984 104.29423828 174.18208984 103.57421875 173.34765625 C100.0716087 170.34914392 95.11576217 170.90005095 90.73828125 170.97265625 C89.53623047 170.98490234 88.33417969 170.99714844 87.09570312 171.00976562 C84.59303724 171.04465049 82.09042497 171.0836476 79.58789062 171.12695312 C72.45697467 171.19160676 65.91758235 170.78780248 59 169 C59 168.34 59 167.68 59 167 C58.01 167.33 57.02 167.66 56 168 C54.515 167.01 54.515 167.01 53 166 C49.19055455 164.73018485 46.69142823 165.1612465 43.1015625 166.94140625 C42.06128906 167.46541016 42.06128906 167.46541016 41 168 C35.49164559 170.29602536 30.82300404 171.32115901 24.84765625 170.91015625 C22.74715746 170.80488971 22.74715746 170.80488971 21 173 C18.47524284 173.19893799 16.08485251 173.27847435 13.5625 173.25 C12.88123047 173.25773438 12.19996094 173.26546875 11.49804688 173.2734375 C7.78590558 173.25889434 6.16410628 173.10940418 3 171 C-1.2486756 171.24433278 -3.07374756 172.65816121 -5.875 175.75 C-10.61224192 180.72811863 -15.36711115 184.78903705 -22 187 C-22.99 187.350625 -23.98 187.70125 -25 188.0625 C-27.67006286 188.89689464 -30.25317511 189.49400594 -33 190 C-33.70125 190.226875 -34.4025 190.45375 -35.125 190.6875 C-37 191 -37 191 -40 189 C-41.6875 187.5 -41.6875 187.5 -43 186 C-43 185.34 -43 184.68 -43 184 C-42.34 184 -41.68 184 -41 184 C-40.896875 183.278125 -40.79375 182.55625 -40.6875 181.8125 C-39.66272672 177.62024566 -37.37287483 174.55931224 -35 171 C-34.61866701 169.0085944 -34.28674418 167.00720923 -34 165 C-33.773125 164.319375 -33.54625 163.63875 -33.3125 162.9375 C-32.82470939 159.91319821 -33.42312269 158.64915388 -35 156 C-36.94873965 154.38104706 -38.97477554 152.92983411 -41.046875 151.47265625 C-43.49712646 149.62516665 -45.13504412 147.42444264 -47 145 C-48.06545064 144.08297034 -49.14980319 143.18754025 -50.25 142.3125 C-51.1575 141.549375 -52.065 140.78625 -53 140 C-53 139.34 -53 138.68 -53 138 C-53.66 138 -54.32 138 -55 138 C-55.2784375 137.41992188 -55.556875 136.83984375 -55.84375 136.2421875 C-56.94883372 134.0992211 -58.17473463 132.13714071 -59.5 130.125 C-62.16877461 125.89747207 -64 122.08209051 -64 117 C-64.66 117 -65.32 117 -66 117 C-68.25684543 111.63999211 -69.36263859 107.8022175 -69 102 C-69.66 101.67 -70.32 101.34 -71 101 C-70.98839844 100.29875 -70.97679687 99.5975 -70.96484375 98.875 C-70.92193626 94.36358418 -70.91184497 89.97116793 -71.5625 85.5 C-72 82 -72 82 -71 79 C-70.97011764 75.96480561 -71.06617526 72.94386267 -71.16015625 69.91015625 C-70.99630833 66.93291957 -70.41949279 65.55508703 -69 63 C-68.64509516 61.53043107 -68.33316887 60.04988988 -68.0625 58.5625 C-67.28699255 54.83151533 -66.12935914 52.19403872 -64 49 C-63.5359375 47.824375 -63.5359375 47.824375 -63.0625 46.625 C-60.82298076 41.09207011 -56.51815346 31.75907673 -51 29 C-49.45294322 27.24178505 -47.99941803 25.42126854 -46.53515625 23.59375 C-45 22 -45 22 -42 21 C-41.67 20.01 -41.34 19.02 -41 18 C-38.9375 17.3125 -38.9375 17.3125 -37 17 C-37 16.34 -37 15.68 -37 15 C-34.91796875 13.4921875 -34.91796875 13.4921875 -32.1875 11.875 C-31.29417969 11.33617188 -30.40085938 10.79734375 -29.48046875 10.2421875 C-27 9 -27 9 -24 9 C-23.4121875 8.319375 -23.4121875 8.319375 -22.8125 7.625 C-20.39110806 5.45409689 -18.06879687 5.10576296 -14.9375 4.4296875 C-12.79924432 3.99048358 -12.79924432 3.99048358 -10 3 C-7 2 -7 2 -4 3 C-3.67 2.34 -3.34 1.68 -3 1 C-2.34 1 -1.68 1 -1 1 C-0.67 0.67 -0.34 0.34 0 0 Z M15 37 C15 37.66 15 38.32 15 39 C14.29875 39.0825 13.5975 39.165 12.875 39.25 C9.24240445 40.19763362 6.92721026 41.65823179 4 44 C2.70957237 46.26601865 2.70957237 46.26601865 2 49 C1.731875 49.5878125 1.46375 50.175625 1.1875 50.78125 C-1.22138695 56.20124565 -1.13141924 60.24536768 0 66 C0.22429687 67.20269531 0.22429687 67.20269531 0.453125 68.4296875 C1.45984675 73.38210901 2.87349152 77.19758644 5.5625 81.5 C7 84 7 84 7.5 86.1875 C7.89906646 88.40546281 7.89906646 88.40546281 11 90 C11 90.99 11 91.98 11 93 C12.47475727 94.50397876 12.47475727 94.50397876 14.375 95.875 C17.48712781 98.38216509 18.6349287 100.21980254 20 104 C21.32467746 104.6837045 22.65863633 105.34964186 24 106 C24.474375 106.825 24.94875 107.65 25.4375 108.5 C27.33484594 111.5357535 28.74917939 111.74968438 32 113 C33.125 115.0625 33.125 115.0625 34 117 C34.99 117.33 35.98 117.66 37 118 C37.99 118.99 37.99 118.99 39 120 C42.17281392 122.71955479 44.81438134 124.4574198 49 125 C54.86119899 122.51020142 59.77834196 118.56625007 64.4609375 114.31640625 C66 113 66 113 68.9375 111.25 C69.618125 110.8375 70.29875 110.425 71 110 C71 109.34 71 108.68 71 108 C72.94127845 106.41988963 74.98976439 105.0464337 77.0546875 103.6328125 C79.14235688 101.88051169 79.91722099 100.46548272 81 98 C82 97 83 96 84 95 C86.29953821 91.75786209 86.29953821 91.75786209 87 88 C87.66 87.67 88.32 87.34 89 87 C92.35506321 81.93075114 92.35506321 81.93075114 93 76 C93.99 75.67 94.98 75.34 96 75 C96.2165625 73.14375 96.2165625 73.14375 96.4375 71.25 C96.70409861 69.07531706 96.98569545 67.05245 97.5625 64.9375 C98.88696462 59.07201384 97.96156555 52.64252807 96 47 C95.01 46.505 95.01 46.505 94 46 C92.31237149 44.3545622 90.6459651 42.68711423 89 41 C88.01 40.01 88.01 40.01 87 39 C85.68 39 84.36 39 83 39 C83 38.34 83 37.68 83 37 C82.01 36.67 81.02 36.34 80 36 C80 36.66 80 37.32 80 38 C79.236875 37.835 78.47375 37.67 77.6875 37.5 C70.97831213 36.251779 66.57629192 39.54139079 61 43 C58.39459776 45.27972696 56.42668011 47.42562293 54.375 50.1875 C52.08085861 53.21159546 49.59384404 54.25644606 46 55 C45.773125 54.071875 45.54625 53.14375 45.3125 52.1875 C43.71313481 48.3033274 42.65931557 47.90920813 39 46 C37.71754774 45.03610119 36.44770229 44.05531162 35.1875 43.0625 C30.62401747 39.6097519 25.97990155 36.33110017 20.1875 35.6875 C17.82763643 35.95807373 17.82763643 35.95807373 15 37 Z M90 40 C91 42 91 42 91 42 Z M2 46 C3 48 3 48 3 48 Z M126 52 C127 54 127 54 127 54 Z M128 53 C126.99782936 56.58327753 126.99782936 56.58327753 128 60 C128.66 60 129.32 60 130 60 C130 61.32 130 62.64 130 64 C129.34 64 128.68 64 128 64 C128 65.65 128 67.3 128 69 C128.66 69 129.32 69 130 69 C129.25 73.75 129.25 73.75 127 76 C127 77.94279386 127.00507027 79.88596484 127.0546875 81.828125 C126.97022236 85.18259759 126.1562665 87.85238565 125 91 C124.01 91.495 124.01 91.495 123 92 C122.67 92.99 122.34 93.98 122 95 C121.34676666 96.33996583 120.67835352 97.6725744 120 99 C119.62101562 99.804375 119.24203125 100.60875 118.8515625 101.4375 C116.67264537 105.98963259 114.80266183 109.59071698 111 113 C110.690625 113.639375 110.38125 114.27875 110.0625 114.9375 C108.56211698 117.85000822 106.33969069 119.71348409 104 122 C102.47402476 123.74684008 100.98313398 125.5200994 99.4921875 127.296875 C98.12209739 128.86064277 96.62742031 130.31290231 95.125 131.75 C92.65668823 133.84769748 92.65668823 133.84769748 93 137 C94.79232337 136.69128878 96.58384321 136.37790936 98.375 136.0625 C99.87160156 135.80146484 99.87160156 135.80146484 101.3984375 135.53515625 C103.96909656 135.12287938 103.96909656 135.12287938 106 134 C107.485 133.505 107.485 133.505 109 133 C109.33 132.34 109.66 131.68 110 131 C111.71689772 130.00948208 113.43560301 129.02180321 115.16796875 128.05859375 C123.87745831 123.02603155 130.57711587 113.87193917 135 105 C135.262781 102.27463323 135.262781 102.27463323 135 100 C135.99 99.67 136.98 99.34 138 99 C138.33 91.08 138.66 83.16 139 75 C138.34 75 137.68 75 137 75 C137.3403125 73.4221875 137.3403125 73.4221875 137.6875 71.8125 C138.04265801 67.47957226 137.37567476 66.47214003 135 63 C134.8453125 61.7625 134.8453125 61.7625 134.6875 60.5 C133.63202417 56.66190608 131.14869767 55.34477486 128 53 Z M-32 57 C-40.06001046 67.00553023 -40.04248749 80.73395767 -39 93 C-38.33688557 97.11896079 -37.57851965 101.12611002 -36 105 C-35.34 105.33 -34.68 105.66 -34 106 C-33.855625 107.134375 -33.71125 108.26875 -33.5625 109.4375 C-33.376875 110.613125 -33.19125 111.78875 -33 113 C-32.01 113.66 -31.02 114.32 -30 115 C-29.67 115.99 -29.34 116.98 -29 118 C-28.34 118.33 -27.68 118.66 -27 119 C-26.87109375 119.6290625 -26.7421875 120.258125 -26.609375 120.90625 C-25.80292576 123.67712688 -24.73332647 124.11829956 -22.25 125.5 C-19.72617236 126.95950887 -17.63027849 128.30810126 -15.375 130.1875 C-11.91459102 132.82833843 -8.43131557 133.7455439 -4.1875 134.5 C-3.465625 134.665 -2.74375 134.83 -2 135 C-1.67 135.66 -1.34 136.32 -1 137 C1.97 136.505 1.97 136.505 5 136 C4.67 135.01 4.34 134.02 4 133 C3.34 133 2.68 133 2 133 C1.95875 132.4225 1.9175 131.845 1.875 131.25 C0.57509891 127.90739721 -2.05515475 126.94359787 -5 125 C-6.625 122.5 -6.625 122.5 -8 120 C-8.66 119.34 -9.32 118.68 -10 118 C-12.68404136 115.31595864 -14.37281287 112.37981168 -15.9375 108.9375 C-16.96584379 106.83653857 -16.96584379 106.83653857 -19.0625 105 C-21.11958047 102.87656209 -21.41986758 101.80397338 -22 99 C-22.66 98.67 -23.32 98.34 -24 98 C-27.08038561 91.91599851 -29.46400582 85.8339258 -30 79 C-30.185625 77.88625 -30.37125 76.7725 -30.5625 75.625 C-31.1461776 70.78881421 -31.7632462 65.58655656 -30.3671875 60.85546875 C-30.24601562 60.24316406 -30.12484375 59.63085938 -30 59 C-30.66 58.34 -31.32 57.68 -32 57 Z M-38 66 C-37 68 -37 68 -37 68 Z M-39 69 C-38 72 -38 72 -38 72 Z M96 70 C97 72 97 72 97 72 Z M168 71 C169 73 169 73 169 73 Z M126 81 C127 83 127 83 127 83 Z M-29 83 C-28 86 -28 86 -28 86 Z M-28 87 C-27 89 -27 89 -27 89 Z M168 96 C169 98 169 98 169 98 Z M-39 97 C-38 100 -38 100 -38 100 Z M-38 101 C-37 103 -37 103 -37 103 Z M-34 168 C-33 170 -33 170 -33 170 Z " fill="#D690A2" transform="translate(203,104)"/>
<path d="M0 0 C1.21365234 0.00064453 2.42730469 0.00128906 3.67773438 0.00195312 C13.40991746 0.05042554 13.40991746 0.05042554 17.1875 1.1875 C17.1875 1.8475 17.1875 2.5075 17.1875 3.1875 C18.5075 2.8575 19.8275 2.5275 21.1875 2.1875 C21.6825 3.1775 21.6825 3.1775 22.1875 4.1875 C24.51711443 4.54590222 26.85115343 4.87598712 29.1875 5.1875 C32.2822704 6.21909013 33.87558157 6.87558157 36.1875 9.1875 C37.363125 9.6515625 37.363125 9.6515625 38.5625 10.125 C41.21262018 11.19766769 42.9250721 12.46354664 45.1875 14.1875 C46.68377041 15.15164607 48.18387658 16.10986188 49.6875 17.0625 C53.20536292 19.3922873 55.88246301 21.57961602 58.1875 25.1875 C58.1875 25.8475 58.1875 26.5075 58.1875 27.1875 C58.765 27.435 59.3425 27.6825 59.9375 27.9375 C62.53658658 29.38143699 64.26586838 30.92271987 66.1875 33.1875 C66.1875 34.1775 66.1875 35.1675 66.1875 36.1875 C66.8475 36.1875 67.5075 36.1875 68.1875 36.1875 C71.05355751 41.11011787 73.45477749 45.74180068 75.1875 51.1875 C75.6825 52.0125 76.1775 52.8375 76.6875 53.6875 C79.40078808 58.20964679 80.1875 62.00019276 80.1875 67.1875 C80.5175 67.8475 80.8475 68.5075 81.1875 69.1875 C82.42660609 71.66571219 82.40936354 73.45118297 82.1875 76.1875 C81.8575 76.5175 81.5275 76.8475 81.1875 77.1875 C81.11430379 79.88404854 81.09507463 82.55441458 81.125 85.25 C81.12951172 86.00861328 81.13402344 86.76722656 81.13867188 87.54882812 C81.1504932 89.42841871 81.16842922 91.30796899 81.1875 93.1875 C81.5175 93.1875 81.8475 93.1875 82.1875 93.1875 C82.04519192 94.60452513 81.89849254 96.0211096 81.75 97.4375 C81.62818359 98.62085938 81.62818359 98.62085938 81.50390625 99.828125 C80.98134268 103.72477189 79.85806176 107.42123825 78.75 111.1875 C78.50378906 112.033125 78.25757813 112.87875 78.00390625 113.75 C77.23541336 116.04444769 76.31542602 118.05173134 75.1875 120.1875 C74.8575 120.87070313 74.5275 121.55390625 74.1875 122.2578125 C73.8575 122.93585938 73.5275 123.61390625 73.1875 124.3125 C72.8575 124.99570313 72.5275 125.67890625 72.1875 126.3828125 C71.1875 128.1875 71.1875 128.1875 69.1875 130.1875 C68.41285505 131.59084231 67.66599263 133.00965444 66.9375 134.4375 C64.53982289 138.84154193 61.97473875 141.90522642 58.1875 145.1875 C57.5275 145.1875 56.8675 145.1875 56.1875 145.1875 C55.8575 146.1775 55.5275 147.1675 55.1875 148.1875 C53.59375 149.72265625 53.59375 149.72265625 51.6875 151.25 C49.00643599 153.36471767 49.00643599 153.36471767 47.1875 156.1875 C46.5275 156.1875 45.8675 156.1875 45.1875 156.1875 C45.1875 160.4775 45.1875 164.7675 45.1875 169.1875 C45.8475 169.1875 46.5075 169.1875 47.1875 169.1875 C47.5175 171.8275 47.8475 174.4675 48.1875 177.1875 C48.8475 177.1875 49.5075 177.1875 50.1875 177.1875 C53.0269052 180.86202438 54.1875 182.45636581 54.1875 187.1875 C51.42465968 189.25963024 48.65900431 190.82837886 45.1875 191.1875 C44.5275 190.5275 43.8675 189.8675 43.1875 189.1875 C41.82625 189.2184375 41.82625 189.2184375 40.4375 189.25 C31.37076099 189.07563963 23.54494943 181.02984691 17.1875 175.1875 C16.71699219 174.64222656 16.24648438 174.09695313 15.76171875 173.53515625 C12.2591087 170.53664392 7.30326217 171.08755095 2.92578125 171.16015625 C1.72373047 171.17240234 0.52167969 171.18464844 -0.71679688 171.19726562 C-3.21946276 171.23215049 -5.72207503 171.2711476 -8.22460938 171.31445312 C-15.35552533 171.37910676 -21.89491765 170.97530248 -28.8125 169.1875 C-28.8125 168.5275 -28.8125 167.8675 -28.8125 167.1875 C-29.8025 167.5175 -30.7925 167.8475 -31.8125 168.1875 C-32.8025 167.5275 -33.7925 166.8675 -34.8125 166.1875 C-36.92530345 165.55457617 -36.92530345 165.55457617 -38.8125 165.1875 C-38.6875 163.375 -38.6875 163.375 -37.8125 161.1875 C-35.25 159.6875 -35.25 159.6875 -31.8125 158.1875 C-23.37920144 154.30193741 -16.13672233 148.98353427 -8.6652832 143.52539062 C-2.36874355 138.97867337 2.94331003 136.5280968 10.6875 135.3125 C15.41642935 134.49452303 18.34627581 133.15571869 22.1875 130.1875 C23.36714528 129.52742882 24.55508138 128.88200193 25.75 128.25 C29.11306957 126.36430536 31.56545558 124.02804812 34.1875 121.1875 C35.875 119.375 35.875 119.375 37.1875 118.1875 C37.8475 118.1875 38.5075 118.1875 39.1875 118.1875 C39.414375 117.548125 39.64125 116.90875 39.875 116.25 C41.35833837 112.78887713 43.16912473 109.61955499 45.06640625 106.37109375 C46.26605813 104.24790281 46.26605813 104.24790281 46.71484375 101.97265625 C46.87082031 101.38355469 47.02679688 100.79445313 47.1875 100.1875 C47.8475 99.8575 48.5075 99.5275 49.1875 99.1875 C49.38506803 95.45879547 49.56878099 91.72953204 49.75 88 C49.80607422 86.94490234 49.86214844 85.88980469 49.91992188 84.80273438 C49.96826172 83.78115234 50.01660156 82.75957031 50.06640625 81.70703125 C50.1135376 80.76964111 50.16066895 79.83225098 50.20922852 78.86645508 C50.18731955 76.16525196 49.802156 73.81192123 49.1875 71.1875 C49.043125 70.506875 48.89875 69.82625 48.75 69.125 C48.12648855 66.97734945 47.21098558 65.17426612 46.1875 63.1875 C45.7234375 61.95 45.7234375 61.95 45.25 60.6875 C44.1810421 58.17230493 42.90722638 56.29807328 41.1875 54.1875 C41.1875 56.27646425 41.42023927 58.24122935 41.6875 60.3125 C41.8525 61.59125 42.0175 62.87 42.1875 64.1875 C41.5275 64.1875 40.8675 64.1875 40.1875 64.1875 C39.6925 66.1675 39.6925 66.1675 39.1875 68.1875 C38.775 67.47464844 38.3625 66.76179688 37.9375 66.02734375 C30.24329265 53.26663825 20.94126587 47.54317117 7.1875 42.1875 C6.8575 43.1775 6.5275 44.1675 6.1875 45.1875 C3.98951017 44.20219421 2.36697452 43.37445263 0.6875 41.625 C-1.08710185 39.92433989 -2.42256256 39.59955818 -4.8125 39.1875 C-4.8125 38.5275 -4.8125 37.8675 -4.8125 37.1875 C-6.0809375 37.6825 -6.0809375 37.6825 -7.375 38.1875 C-10.8125 38.1875 -10.8125 38.1875 -12.69921875 36.61328125 C-15.08990839 33.90182822 -17.28938688 31.36450452 -18.765625 28.04296875 C-20.10916402 25.66169623 -21.34846502 25.31152311 -23.8125 24.1875 C-25.48377239 22.90754992 -27.12812004 21.59198696 -28.75 20.25 C-31.97855213 17.5803317 -35.17162473 15.26520878 -38.8125 13.1875 C-38.4825 11.5375 -38.1525 9.8875 -37.8125 8.1875 C-36.4203125 7.754375 -36.4203125 7.754375 -35 7.3125 C-31.71458333 6.3 -31.71458333 6.3 -28.8125 4.1875 C-25.625 4.0625 -25.625 4.0625 -22.8125 4.1875 C-22.8125 3.5275 -22.8125 2.8675 -22.8125 2.1875 C-15.13079019 0.09998917 -7.93383861 -0.08135075 0 0 Z M2.1875 40.1875 C3.1875 42.1875 3.1875 42.1875 3.1875 42.1875 Z M38.1875 52.1875 C39.1875 54.1875 39.1875 54.1875 39.1875 54.1875 Z M80.1875 71.1875 C81.1875 73.1875 81.1875 73.1875 81.1875 73.1875 Z M80.1875 96.1875 C81.1875 98.1875 81.1875 98.1875 81.1875 98.1875 Z " fill="#50A8D4" transform="translate(290.8125,103.8125)"/>
<path d="M0 0 C1.66666667 0.33333333 3.33333333 0.66666667 5 1 C5.33 0.67 5.66 0.34 6 0 C7.62252492 -0.09886353 9.24947273 -0.12971167 10.875 -0.125 C11.75929688 -0.12757812 12.64359375 -0.13015625 13.5546875 -0.1328125 C16 0 16 0 19 1 C20.32 1 21.64 1 23 1 C23.99 1 24.98 1 26 1 C26 1.66 26 2.32 26 3 C28.97 2.505 28.97 2.505 32 2 C32 2.66 32 3.32 32 4 C32.94875 4.04125 33.8975 4.0825 34.875 4.125 C40.18009616 4.85485923 44.78873433 7.80553892 49 11 C49 11.66 49 12.32 49 13 C50.0828125 13.37705078 50.0828125 13.37705078 51.1875 13.76171875 C58.05053997 16.78336274 63.88393976 22.61467343 69 28 C69.68449219 28.66386719 70.36898437 29.32773438 71.07421875 30.01171875 C71.81285156 30.72972656 72.55148437 31.44773438 73.3125 32.1875 C74.35857422 33.19876953 74.35857422 33.19876953 75.42578125 34.23046875 C77 36 77 36 77 38 C76.46890625 37.76539063 75.9378125 37.53078125 75.390625 37.2890625 C70.01265603 36.63878521 64.17829791 41.76217585 60 45 C57.70868555 47.27332925 55.67058978 49.57701886 53.68359375 52.1171875 C51.91650654 54.0933732 50.42851097 54.99033461 48 56 C43.125 51.25 43.125 51.25 42 49 C38.18481469 45.67003776 34.12472991 42.94052916 29.5625 40.75 C26 39 26 39 25 37 C15.13379737 32.41926306 2.89916651 32.43318696 -7.4375 35.625 C-14.03950878 38.18032296 -21.31393083 41.52367657 -26 47 C-27.00484883 49.33124929 -28.00522247 51.66443537 -29 54 C-29.99 54.495 -29.99 54.495 -31 55 C-32.57347754 57.71782484 -33.55892087 60.51309667 -34.5 63.5 C-35.44332987 66.49404699 -36.53492445 69.22140844 -38 72 C-38 71.01 -38 70.02 -38 69 C-38.99 69 -39.98 69 -41 69 C-40.1875 65.5625 -40.1875 65.5625 -39 62 C-38.01 61.67 -37.02 61.34 -36 61 C-36.66 59.68 -37.32 58.36 -38 57 C-53.51278998 72.89973032 -60.39225301 89.84626404 -60.25 111.8125 C-60.25773438 113.02615234 -60.26546875 114.23980469 -60.2734375 115.49023438 C-60.27085937 116.65490234 -60.26828125 117.81957031 -60.265625 119.01953125 C-60.26336914 120.07245361 -60.26111328 121.12537598 -60.25878906 122.21020508 C-60.00146302 124.9842284 -59.428587 126.63758243 -58 129 C-61 128 -61 128 -62.6875 125.25 C-63.93950669 122.14979295 -64.28970125 120.28328088 -64 117 C-64.66 117 -65.32 117 -66 117 C-68.25684543 111.63999211 -69.36263859 107.8022175 -69 102 C-69.66 101.67 -70.32 101.34 -71 101 C-70.98839844 100.29875 -70.97679687 99.5975 -70.96484375 98.875 C-70.92193626 94.36358418 -70.91184497 89.97116793 -71.5625 85.5 C-72 82 -72 82 -71 79 C-70.97011764 75.96480561 -71.06617526 72.94386267 -71.16015625 69.91015625 C-70.99630833 66.93291957 -70.41949279 65.55508703 -69 63 C-68.64509516 61.53043107 -68.33316887 60.04988988 -68.0625 58.5625 C-67.28699255 54.83151533 -66.12935914 52.19403872 -64 49 C-63.5359375 47.824375 -63.5359375 47.824375 -63.0625 46.625 C-60.82298076 41.09207011 -56.51815346 31.75907673 -51 29 C-49.45294322 27.24178505 -47.99941803 25.42126854 -46.53515625 23.59375 C-45 22 -45 22 -42 21 C-41.67 20.01 -41.34 19.02 -41 18 C-38.9375 17.3125 -38.9375 17.3125 -37 17 C-37 16.34 -37 15.68 -37 15 C-34.91796875 13.4921875 -34.91796875 13.4921875 -32.1875 11.875 C-31.29417969 11.33617188 -30.40085938 10.79734375 -29.48046875 10.2421875 C-27 9 -27 9 -24 9 C-23.4121875 8.319375 -23.4121875 8.319375 -22.8125 7.625 C-20.39110806 5.45409689 -18.06879687 5.10576296 -14.9375 4.4296875 C-12.79924432 3.99048358 -12.79924432 3.99048358 -10 3 C-7 2 -7 2 -4 3 C-3.67 2.34 -3.34 1.68 -3 1 C-2.34 1 -1.68 1 -1 1 C-0.67 0.67 -0.34 0.34 0 0 Z M-38 66 C-37 68 -37 68 -37 68 Z " fill="#F89486" transform="translate(203,104)"/>
<path d="M0 0 C0.72896484 -0.00773438 1.45792969 -0.01546875 2.20898438 -0.0234375 C6.66566339 -0.00739185 10.23969728 0.57883683 14.4375 2.25 C11.79011084 3.7106285 10.54301666 4.25 7.4375 4.25 C7.4375 4.91 7.4375 5.57 7.4375 6.25 C6.90640625 6.46914062 6.3753125 6.68828125 5.828125 6.9140625 C-0.72502001 9.85580278 -3.46815803 13.53508254 -6.375 20.0625 C-9.14010727 27.96710013 -6.12630069 37.55859794 -3.5625 45.25 C-2.881875 45.86875 -2.881875 45.86875 -2.1875 46.5 C-0.25006179 48.58647192 0.5702969 50.81330732 1.6328125 53.42578125 C4.6192812 60.19607681 10.0278719 65.97248993 15.3125 71.0625 C17.4375 73.25 17.4375 73.25 17.4375 75.25 C18.72983853 75.89616927 20.04254125 76.50372698 21.375 77.0625 C23.80932002 78.46407819 24.78139849 79.99770195 26.4375 82.25 C29.59424941 84.93323699 32.75583649 87.43464799 36.5 89.25 C38.4375 90.25 38.4375 90.25 40.4375 92.25 C40.27197266 94.24560547 40.27197266 94.24560547 39.4375 96.25 C36.8965137 97.81960692 34.49985077 99.11515463 31.8125 100.375 C31.11253906 100.72175781 30.41257812 101.06851563 29.69140625 101.42578125 C22.98727464 104.67212327 16.83498004 106.53770062 9.3125 106.5625 C8.13429687 106.57925781 6.95609375 106.59601563 5.7421875 106.61328125 C2.14512535 106.21785952 0.27324501 105.46769802 -2.5625 103.25 C-2.8925 102.26 -3.2225 101.27 -3.5625 100.25 C-4.2225 100.25 -4.8825 100.25 -5.5625 100.25 C-5.8925 99.26 -6.2225 98.27 -6.5625 97.25 C-8.53571053 95.8773318 -10.53793152 94.54572383 -12.5625 93.25 C-14.4375 91.6875 -14.4375 91.6875 -15.5625 90.25 C-15.5625 89.26 -15.5625 88.27 -15.5625 87.25 C-16.42875 86.9715625 -16.42875 86.9715625 -17.3125 86.6875 C-19.73987174 85.13667917 -20.33890513 84.1616139 -21.6875 81.6875 C-23.15725241 78.21468026 -23.15725241 78.21468026 -25.5625 77.25 C-26.78102692 75.11757789 -27.65572443 72.99518657 -28.5 70.6875 C-29.36371599 68.25897917 -29.36371599 68.25897917 -30.96484375 66.95703125 C-35.81584107 61.77393632 -38.02131808 53.15006953 -38.5625 46.25 C-38.748125 45.13625 -38.93375 44.0225 -39.125 42.875 C-39.81453333 37.16172384 -40.01341037 31.83485342 -38.5625 26.25 C-38.5625 25.38375 -38.5625 24.5175 -38.5625 23.625 C-38.5625 21.25 -38.5625 21.25 -37.5625 19.25 C-36.9025 19.25 -36.2425 19.25 -35.5625 19.25 C-35.35625 18.363125 -35.15 17.47625 -34.9375 16.5625 C-31.67251184 8.69684669 -22.9864815 5.44240567 -15.5625 2.25 C-10.23127941 0.40026575 -5.56903834 -0.05940308 0 0 Z M-5.5625 13.25 C-4.5625 15.25 -4.5625 15.25 -4.5625 15.25 Z M-36.5625 50.25 C-35.5625 53.25 -35.5625 53.25 -35.5625 53.25 Z M-35.5625 54.25 C-34.5625 56.25 -34.5625 56.25 -34.5625 56.25 Z " fill="#B1A2D1" transform="translate(210.5625,136.75)"/>
<path d="M0 0 C1.21365234 0.00064453 2.42730469 0.00128906 3.67773438 0.00195312 C13.40991746 0.05042554 13.40991746 0.05042554 17.1875 1.1875 C17.1875 1.8475 17.1875 2.5075 17.1875 3.1875 C18.5075 2.8575 19.8275 2.5275 21.1875 2.1875 C21.6825 3.1775 21.6825 3.1775 22.1875 4.1875 C24.51711443 4.54590222 26.85115343 4.87598712 29.1875 5.1875 C32.2822704 6.21909013 33.87558157 6.87558157 36.1875 9.1875 C36.97125 9.496875 37.755 9.80625 38.5625 10.125 C41.21262018 11.19766769 42.9250721 12.46354664 45.1875 14.1875 C46.68377041 15.15164607 48.18387658 16.10986188 49.6875 17.0625 C53.20536292 19.3922873 55.88246301 21.57961602 58.1875 25.1875 C58.1875 25.8475 58.1875 26.5075 58.1875 27.1875 C58.765 27.435 59.3425 27.6825 59.9375 27.9375 C62.53658658 29.38143699 64.26586838 30.92271987 66.1875 33.1875 C66.1875 34.1775 66.1875 35.1675 66.1875 36.1875 C66.8475 36.1875 67.5075 36.1875 68.1875 36.1875 C71.05355751 41.11011787 73.45477749 45.74180068 75.1875 51.1875 C75.6825 52.0125 76.1775 52.8375 76.6875 53.6875 C79.40078808 58.20964679 80.1875 62.00019276 80.1875 67.1875 C80.5175 67.8475 80.8475 68.5075 81.1875 69.1875 C82.42660609 71.66571219 82.40936354 73.45118297 82.1875 76.1875 C81.8575 76.5175 81.5275 76.8475 81.1875 77.1875 C81.11430379 79.88404854 81.09507463 82.55441458 81.125 85.25 C81.12951172 86.00861328 81.13402344 86.76722656 81.13867188 87.54882812 C81.1504932 89.42841871 81.16842922 91.30796899 81.1875 93.1875 C81.5175 93.1875 81.8475 93.1875 82.1875 93.1875 C82.04519192 94.60452513 81.89849254 96.0211096 81.75 97.4375 C81.62818359 98.62085938 81.62818359 98.62085938 81.50390625 99.828125 C81.2095188 102.02331042 80.76471979 104.05178678 80.1875 106.1875 C79.98511719 107.01507813 79.78273438 107.84265625 79.57421875 108.6953125 C79.34347656 109.55898437 79.11273438 110.42265625 78.875 111.3125 C78.65199219 112.18132812 78.42898438 113.05015625 78.19921875 113.9453125 C76.95681551 116.69874671 75.87053113 116.99631941 73.1875 118.1875 C73.18339111 117.54425781 73.17928223 116.90101563 73.17504883 116.23828125 C72.92576458 93.87050404 69.38297858 74.80951681 53.875 57.625 C48.65248761 52.88830271 43.42759424 49.17219536 37.046875 46.1796875 C34.70686698 44.93102776 32.86064847 43.23524619 30.8828125 41.484375 C23.71585593 36.00181836 15.24512174 33.04260552 6.3125 33.0625 C1.52177705 32.74144632 -1.48860193 32.43576854 -5 29.0625 C-6.32261983 27.47936414 -7.58584864 25.84610447 -8.8125 24.1875 C-9.75181662 22.97985578 -10.69198583 21.77287443 -11.6328125 20.56640625 C-16.15745333 14.64407063 -20.10611768 9.17374272 -22.8125 2.1875 C-15.13079019 0.09998917 -7.93383861 -0.08135075 0 0 Z M80.1875 71.1875 C81.1875 73.1875 81.1875 73.1875 81.1875 73.1875 Z M80.1875 96.1875 C81.1875 98.1875 81.1875 98.1875 81.1875 98.1875 Z " fill="#68C0E4" transform="translate(290.8125,103.8125)"/>
<path d="M0 0 C0.825 0.515625 1.65 1.03125 2.5 1.5625 C3.49 1.8925 4.48 2.2225 5.5 2.5625 C5.83 1.5725 6.16 0.5825 6.5 -0.4375 C11.87704918 -1.7817623 11.87704918 -1.7817623 14.875 -0.125 C16.5 1.5625 16.5 1.5625 16.5 3.5625 C17.49 3.8925 18.48 4.2225 19.5 4.5625 C19.64853034 10.30986244 19.75730179 16.05610371 19.82958984 21.80493164 C19.85972831 23.75955671 19.9006477 25.71404692 19.95263672 27.66821289 C20.02558389 30.48096999 20.05948459 33.29193706 20.0859375 36.10546875 C20.11690521 36.97648727 20.14787292 37.8475058 20.17977905 38.74491882 C20.18307932 44.71990216 20.18307932 44.71990216 18.12432861 47.25942993 C16.46337891 48.65356445 16.46337891 48.65356445 13.5 50.5625 C13.17 49.9025 12.84 49.2425 12.5 48.5625 C11.51 48.5625 10.52 48.5625 9.5 48.5625 C9.005 49.5525 9.005 49.5525 8.5 50.5625 C7.84 49.9025 7.18 49.2425 6.5 48.5625 C5.51 48.0675 5.51 48.0675 4.5 47.5625 C4.5 46.9025 4.5 46.2425 4.5 45.5625 C3.819375 46.201875 3.13875 46.84125 2.4375 47.5 C-1.89796421 50.54404934 -5.56967238 50.85947348 -10.75 50.0625 C-12.11125 49.815 -12.11125 49.815 -13.5 49.5625 C-14.985 50.0575 -14.985 50.0575 -16.5 50.5625 C-17.16 49.9025 -17.82 49.2425 -18.5 48.5625 C-19.098125 48.294375 -19.69625 48.02625 -20.3125 47.75 C-25.9559329 44.68642214 -29.70211338 39.21249584 -32.5 33.5625 C-34.56870676 25.43543771 -33.21423264 16.08155631 -29.5 8.5625 C-26.875 6.125 -26.875 6.125 -24.5 4.5625 C-24.17 3.9025 -23.84 3.2425 -23.5 2.5625 C-22.84 2.5625 -22.18 2.5625 -21.5 2.5625 C-21.17 1.9025 -20.84 1.2425 -20.5 0.5625 C-14.13250777 -2.45368053 -6.47159005 -2.65797449 0 0 Z M-7.5 13.5625 C-7.5 14.2225 -7.5 14.8825 -7.5 15.5625 C-8.263125 15.459375 -9.02625 15.35625 -9.8125 15.25 C-12.66907356 15.2674025 -12.66907356 15.2674025 -14.25 17.6875 C-15.60351177 20.80057707 -16.35839004 23.16386098 -16.5 26.5625 C-14.7434861 30.66103243 -12.23416388 33.16196608 -8.5 35.5625 C-5.7895393 35.89842508 -5.7895393 35.89842508 -3.5 35.5625 C-3.5 34.9025 -3.5 34.2425 -3.5 33.5625 C-2.901875 33.27375 -2.30375 32.985 -1.6875 32.6875 C0.69327792 31.51507974 0.69327792 31.51507974 3.5 29.5625 C3.86416047 27.12556689 3.86416047 27.12556689 3.6875 24.4375 C3.66042969 23.52742188 3.63335937 22.61734375 3.60546875 21.6796875 C3.57066406 20.98101562 3.53585937 20.28234375 3.5 19.5625 C2.84 19.5625 2.18 19.5625 1.5 19.5625 C0.819375 18.5725 0.819375 18.5725 0.125 17.5625 C-0.41125 16.9025 -0.9475 16.2425 -1.5 15.5625 C-2.82 15.5625 -4.14 15.5625 -5.5 15.5625 C-5.5 14.9025 -5.5 14.2425 -5.5 13.5625 C-6.16 13.5625 -6.82 13.5625 -7.5 13.5625 Z M-32.5 27.5625 C-31.5 30.5625 -31.5 30.5625 -31.5 30.5625 Z " fill="#6CB7E4" transform="translate(343.5,345.4375)"/>
<path d="M0 0 C5.58878505 3.86915888 5.58878505 3.86915888 6.75 7.0625 C6.87375 8.0215625 6.87375 8.0215625 7 9 C7.30550781 9.60972656 7.61101562 10.21945312 7.92578125 10.84765625 C8.99938986 12.99877749 9.72535393 15.08164826 10.4375 17.375 C11.6480575 21.11166983 13.13336997 24.53340138 15 28 C14.67 28.33 14.34 28.66 14 29 C14.66 29.33 15.32 29.66 16 30 C16.72693904 31.97888961 17.39816251 33.97954558 18 36 C21.11965762 33.44755286 21.86080651 30.79731164 23 27 C23.350625 26.154375 23.70125 25.30875 24.0625 24.4375 C25.08936745 21.9934446 25.08936745 21.9934446 25.5 19.25 C25.665 18.5075 25.83 17.765 26 17 C26.66 16.67 27.32 16.34 28 16 C28.35840222 13.67038557 28.68848712 11.33634657 29 9 C29.875 6.125 29.875 6.125 31 4 C31.99 3.67 32.98 3.34 34 3 C34.66 2.01 35.32 1.02 36 0 C38.8125 -0.5 38.8125 -0.5 42 0 C44.90860245 2.26224635 46.60983648 3.98557484 47.9375 7.4375 C48.01682913 10.6899942 47.17373466 12.97300008 46 16 C45.67 17.0725 45.34 18.145 45 19.25 C44 22 44 22 42 24 C41.63451555 25.32488113 41.3062434 26.66018514 41 28 C40.10563654 30.38496923 39.16836895 32.67378517 38 34.9375 C36.39016407 38.25778661 35.27926507 41.70839904 34.5 45.3125 C34.2525 46.1478125 34.2525 46.1478125 34 47 C33.01 47.495 33.01 47.495 32 48 C32.33 48.66 32.66 49.32 33 50 C32.505 50.99 32.505 50.99 32 52 C31.01 52 30.02 52 29 52 C29.3403125 53.051875 29.3403125 53.051875 29.6875 54.125 C30.10492845 57.96534169 29.10234659 59.81023276 27 63 C24.8125 63.875 24.8125 63.875 23 64 C22.505 65.98 22.505 65.98 22 68 C21.34 68 20.68 68 20 68 C20 67.34 20 66.68 20 66 C19.01 66 18.02 66 17 66 C17 66.66 17 67.32 17 68 C15.68 67.34 14.36 66.68 13 66 C13 65.34 13 64.68 13 64 C12.37351563 63.75765625 11.74703125 63.5153125 11.1015625 63.265625 C8.46911791 61.68028662 8.19719792 60.6623637 7.375 57.75 C7.13652344 56.94949219 6.89804688 56.14898437 6.65234375 55.32421875 C6.43707031 54.55722656 6.22179687 53.79023438 6 53 C4.73691312 48.54997254 4.73691312 48.54997254 2 45 C1.48460211 43.47646117 1.03431555 41.93039909 0.625 40.375 C-0.54706692 36.2400431 -2.07772938 32.67262227 -4.08203125 28.88671875 C-5.73541833 25.48848063 -7 21.80534346 -7 18 C-7.97850195 16.97895449 -8.97980427 15.9793879 -10 15 C-11.55024464 11.89951072 -11.28992015 9.42105782 -11 6 C-7.96283739 1.34301733 -5.65719328 -0.77143545 0 0 Z M12 25 C13 27 13 27 13 27 Z M17 38 C18 40 18 40 18 40 Z M3 43 C4 45 4 45 4 45 Z " fill="#F48B79" transform="translate(147,328)"/>
<path d="M0 0 C2.01073711 1.52214678 2.62302679 3.00376104 3.671875 5.265625 C5.7054698 6.53367066 5.7054698 6.53367066 7.671875 7.265625 C7.671875 7.925625 7.671875 8.585625 7.671875 9.265625 C8.331875 9.595625 8.991875 9.925625 9.671875 10.265625 C11.91455574 14.45777381 12.00596063 18.55358103 11.984375 23.203125 C12.00048828 23.89341797 12.01660156 24.58371094 12.03320312 25.29492188 C12.03829142 30.66307504 10.87609032 34.76083486 7.296875 38.828125 C6.4925 39.5396875 6.4925 39.5396875 5.671875 40.265625 C4.929375 41.07 4.186875 41.874375 3.421875 42.703125 C0.27055162 45.63958542 -2.45062199 47.39867911 -6.328125 49.265625 C-7.318125 48.935625 -8.308125 48.605625 -9.328125 48.265625 C-10.318125 48.760625 -10.318125 48.760625 -11.328125 49.265625 C-13.32769111 49.30728263 -15.32855889 49.30728263 -17.328125 49.265625 C-17.988125 49.265625 -18.648125 49.265625 -19.328125 49.265625 C-22.6827235 48.73595155 -25.35744144 47.91600476 -28.328125 46.265625 C-28.328125 45.605625 -28.328125 44.945625 -28.328125 44.265625 C-29.318125 43.935625 -30.308125 43.605625 -31.328125 43.265625 C-36.00695701 38.93770539 -39.36941591 35.6570189 -40.328125 29.265625 C-40.51375 28.646875 -40.699375 28.028125 -40.890625 27.390625 C-41.52750223 24.29722129 -41.50286553 21.4109546 -41.328125 18.265625 C-40.668125 17.605625 -40.008125 16.945625 -39.328125 16.265625 C-39.658125 15.605625 -39.988125 14.945625 -40.328125 14.265625 C-34.62224265 4.91268382 -34.62224265 4.91268382 -29.328125 2.265625 C-28.668125 1.275625 -28.008125 0.285625 -27.328125 -0.734375 C-18.65529764 -4.47461024 -8.46532378 -4.00989021 0 0 Z M-17.328125 12.265625 C-17.328125 12.925625 -17.328125 13.585625 -17.328125 14.265625 C-18.25625 14.6678125 -18.25625 14.6678125 -19.203125 15.078125 C-21.6276483 16.22119348 -21.6276483 16.22119348 -23.328125 19.265625 C-23.85668061 21.47358906 -23.85668061 21.47358906 -24.078125 23.828125 C-24.17609375 24.61316406 -24.2740625 25.39820313 -24.375 26.20703125 C-24.5600642 28.49423687 -24.5600642 28.49423687 -22.328125 30.265625 C-21.4825 30.595625 -20.636875 30.925625 -19.765625 31.265625 C-17.328125 32.265625 -17.328125 32.265625 -16.328125 34.265625 C-13.26419487 34.52095251 -11.69579288 34.48423833 -9.015625 32.890625 C-8.45875 32.354375 -7.901875 31.818125 -7.328125 31.265625 C-7.328125 30.605625 -7.328125 29.945625 -7.328125 29.265625 C-6.668125 29.265625 -6.008125 29.265625 -5.328125 29.265625 C-4.668125 26.955625 -4.008125 24.645625 -3.328125 22.265625 C-3.988125 22.265625 -4.648125 22.265625 -5.328125 22.265625 C-5.451875 21.316875 -5.575625 20.368125 -5.703125 19.390625 C-6.04499677 16.17895309 -6.04499677 16.17895309 -8.328125 14.265625 C-9.318125 14.265625 -10.308125 14.265625 -11.328125 14.265625 C-11.328125 13.605625 -11.328125 12.945625 -11.328125 12.265625 C-14.37725728 11.25451407 -14.37725728 11.25451407 -17.328125 12.265625 Z " fill="#D093A5" transform="translate(259.328125,346.734375)"/>
<path d="M0 0 C5.15193648 -0.41772458 7.98555898 0.71965913 12.375 3.375 C13.43460938 4.00148438 14.49421875 4.62796875 15.5859375 5.2734375 C16.38257813 5.84320313 17.17921875 6.41296875 18 7 C18 7.66 18 8.32 18 9 C18.721875 9.25136719 19.44375 9.50273438 20.1875 9.76171875 C27.05053997 12.78336274 32.88393976 18.61467343 38 24 C39.02673828 24.99580078 39.02673828 24.99580078 40.07421875 26.01171875 C40.81285156 26.72972656 41.55148437 27.44773438 42.3125 28.1875 C43.00988281 28.86167969 43.70726562 29.53585938 44.42578125 30.23046875 C46 32 46 32 46 34 C45.46890625 33.76539063 44.9378125 33.53078125 44.390625 33.2890625 C39.01265603 32.63878521 33.17829791 37.76217585 29 41 C26.70868555 43.27332925 24.67058978 45.57701886 22.68359375 48.1171875 C20.91650654 50.0933732 19.42851097 50.99033461 17 52 C12.125 47.25 12.125 47.25 11 45 C7.18481469 41.67003776 3.12472991 38.94052916 -1.4375 36.75 C-5 35 -5 35 -6 33 C-10.7705188 30.90097173 -15.84123287 29.6613804 -21 29 C-18.11573115 25.06225707 -15.21140495 21.17867287 -12 17.5 C-7.26779343 12.04740503 -2.98097453 6.62438785 0 0 Z " fill="#E37873" transform="translate(234,108)"/>
<path d="M0 0 C0.66 0.66 1.32 1.32 2 2 C2.969375 1.34 3.93875 0.68 4.9375 0 C9.25251223 -2.45071689 13.13211404 -2.88258867 18 -2 C21.0625 -0.4375 21.0625 -0.4375 23 2 C23.63119374 5.4084462 23.69370808 7.65667546 22.078125 10.78515625 C20.875 12.4375 20.875 12.4375 18 15 C14.6875 15.375 14.6875 15.375 12 15 C12 14.34 12 13.68 12 13 C8.81172293 14.59257587 6.312418 16.26599831 4 19 C3.11204552 23.22582551 3.46970816 27.278835 3.8125 31.5625 C4.61615118 43.1390621 4.61615118 43.1390621 1.69921875 47.21484375 C-1 49 -1 49 -4 50 C-4 49.34 -4 48.68 -4 48 C-4.66 48 -5.32 48 -6 48 C-6.33 48.66 -6.66 49.32 -7 50 C-7.33 49.34 -7.66 48.68 -8 48 C-8.825 47.525625 -9.65 47.05125 -10.5 46.5625 C-13 45 -13 45 -14 42 C-14.09698 39.30359012 -14.13996989 36.6338078 -14.1328125 33.9375 C-14.13376923 33.14980225 -14.13472595 32.36210449 -14.13571167 31.55053711 C-14.13639174 29.88622966 -14.13454953 28.22191953 -14.13037109 26.55761719 C-14.12502038 24.00970504 -14.13032192 21.46196917 -14.13671875 18.9140625 C-14.13605794 17.29687461 -14.13477671 15.67968683 -14.1328125 14.0625 C-14.13483673 13.29993896 -14.13686096 12.53737793 -14.13894653 11.75170898 C-14.10569455 4.25312049 -14.10569455 4.25312049 -11.125 0.875 C-7.08115819 -2.69309571 -4.72315624 -1.90936103 0 0 Z " fill="#9FA6D5" transform="translate(289,346)"/>
<path d="M0 0 C2.1171875 2.23828125 2.1171875 2.23828125 3.875 5.3125 C7.7526691 11.6872673 12.08834445 17.38667937 17 23 C17.92039062 24.13115234 17.92039062 24.13115234 18.859375 25.28515625 C21.79051179 27.63327496 23.78125441 27.43331222 27.5 27.4375 C40.24293869 28.00709081 50.29720825 34.1838622 60 42 C61.31138904 42.70885894 62.63777017 43.39456452 64 44 C63.67 44.99 63.34 45.98 63 47 C63.66 47.33 64.32 47.66 65 48 C64.67 48.99 64.34 49.98 64 51 C63.34 51 62.68 51 62 51 C62.495 52.11375 62.495 52.11375 63 53.25 C64 56 64 56 64 60 C63.34 60 62.68 60 62 60 C61.67 61.32 61.34 62.64 61 64 C60.5875 63.28714844 60.175 62.57429688 59.75 61.83984375 C52.05579265 49.07913825 42.75376587 43.35567117 29 38 C28.67 38.99 28.34 39.98 28 41 C25.80201017 40.01469421 24.17947452 39.18695263 22.5 37.4375 C20.72539815 35.73683989 19.38993744 35.41205818 17 35 C17 34.34 17 33.68 17 33 C15.7315625 33.495 15.7315625 33.495 14.4375 34 C11 34 11 34 9.11328125 32.42578125 C6.72259161 29.71432822 4.52311312 27.17700452 3.046875 23.85546875 C1.70333598 21.47419623 0.46403498 21.12402311 -2 20 C-3.67127239 18.72004992 -5.31562004 17.40448696 -6.9375 16.0625 C-10.16605213 13.3928317 -13.35912473 11.07770878 -17 9 C-16.67 7.35 -16.34 5.7 -16 4 C-14.6078125 3.566875 -14.6078125 3.566875 -13.1875 3.125 C-3.17626527 -0.40837696 -3.17626527 -0.40837696 0 0 Z M24 36 C25 38 25 38 25 38 Z M60 48 C61 50 61 50 61 50 Z " fill="#6D80C0" transform="translate(269,108)"/>
<path d="M0 0 C3.27169074 1.4261216 5.12822522 3.36834609 7.4375 6.0625 C9.30685609 11.67056827 8.82408266 17.92265618 8.89746094 23.80297852 C8.9240121 25.42567552 8.96487717 27.04820555 9.02050781 28.67016602 C9.53521051 43.87404972 9.53521051 43.87404972 5.03125 49.17578125 C1.94504743 52.0625 1.94504743 52.0625 -0.5625 52.0625 C-0.5625 51.4025 -0.5625 50.7425 -0.5625 50.0625 C-1.2225 50.0625 -1.8825 50.0625 -2.5625 50.0625 C-2.8925 50.7225 -3.2225 51.3825 -3.5625 52.0625 C-4.2225 51.4025 -4.8825 50.7425 -5.5625 50.0625 C-6.60253174 49.55384399 -6.60253174 49.55384399 -7.66357422 49.03491211 C-10.35622078 46.23806311 -10.02138394 44.0471378 -10.01712036 40.2691803 C-9.99342377 39.35663986 -9.96972717 38.44409943 -9.9453125 37.50390625 C-9.93168671 36.56320786 -9.91806091 35.62250946 -9.90402222 34.65330505 C-9.86856817 32.66343402 -9.82248274 30.67372834 -9.76660156 28.68432617 C-9.68788472 25.63987958 -9.66230164 22.59805634 -9.640625 19.55273438 C-9.59958632 17.61972034 -9.55541911 15.68676968 -9.5078125 13.75390625 C-9.50435822 12.84339005 -9.50090393 11.93287384 -9.49734497 10.99476624 C-9.40358782 8.53840169 -9.2590575 6.42031378 -8.5625 4.0625 C-5.62822636 1.4289684 -3.96739868 0.09676582 0 0 Z " fill="#E6898D" transform="translate(207.5625,343.9375)"/>
<path d="M0 0 C0.72896484 -0.00773438 1.45792969 -0.01546875 2.20898438 -0.0234375 C6.66566339 -0.00739185 10.23969728 0.57883683 14.4375 2.25 C11.79011084 3.7106285 10.54301666 4.25 7.4375 4.25 C7.4375 4.91 7.4375 5.57 7.4375 6.25 C6.167947 6.89834654 4.89680294 7.54357815 3.625 8.1875 C2.91730469 8.54714844 2.20960938 8.90679687 1.48046875 9.27734375 C-2.12504627 10.99392738 -5.30623203 11.48771911 -9.25 11.8125 C-10.74080078 11.93818359 -10.74080078 11.93818359 -12.26171875 12.06640625 C-13.02097656 12.12699219 -13.78023437 12.18757812 -14.5625 12.25 C-14.5625 12.91 -14.5625 13.57 -14.5625 14.25 C-18.94711538 17.25 -18.94711538 17.25 -21.5625 17.25 C-21.80226562 17.82363281 -22.04203125 18.39726562 -22.2890625 18.98828125 C-23.81266588 21.69431303 -25.64551436 23.34730047 -27.9375 25.4375 C-32.25484375 29.62275111 -34.64672564 33.58305906 -36.5625 39.25 C-37.5525 38.92 -38.5425 38.59 -39.5625 38.25 C-39.69413065 30.3521611 -39.69413065 30.3521611 -38.5625 26.25 C-38.5625 25.38375 -38.5625 24.5175 -38.5625 23.625 C-38.5625 21.25 -38.5625 21.25 -37.5625 19.25 C-36.9025 19.25 -36.2425 19.25 -35.5625 19.25 C-35.35625 18.363125 -35.15 17.47625 -34.9375 16.5625 C-31.67251184 8.69684669 -22.9864815 5.44240567 -15.5625 2.25 C-10.23127941 0.40026575 -5.56903834 -0.05940308 0 0 Z " fill="#8476B0" transform="translate(210.5625,136.75)"/>
<path d="M0 0 C2.1171875 2.23828125 2.1171875 2.23828125 3.875 5.3125 C7.7574014 11.70260037 12.19823581 17.28662268 17 23 C18.33782916 24.66306004 19.67250868 26.32867647 21 28 C17.0180575 29.51039198 13.26465438 30.71321129 9 31 C5.84083623 29.27110441 3.85863522 27.06936591 2 24 C2 23.34 2 22.68 2 22 C1.44183594 21.75121094 0.88367188 21.50242188 0.30859375 21.24609375 C-2.39321471 19.7877572 -4.57266717 18.01922609 -6.9375 16.0625 C-10.16605213 13.3928317 -13.35912473 11.07770878 -17 9 C-16.67 7.35 -16.34 5.7 -16 4 C-14.6078125 3.566875 -14.6078125 3.566875 -13.1875 3.125 C-3.17626527 -0.40837696 -3.17626527 -0.40837696 0 0 Z " fill="#5494C3" transform="translate(269,108)"/>
<path d="M0 0 C6.48462882 -1.02388876 10.83877972 2.57278653 16 6 C15.67621563 8.89501319 15.20293223 9.83247621 12.91796875 11.71875 C11.56638672 12.60046875 11.56638672 12.60046875 10.1875 13.5 C6.05686924 16.30882891 2.84876357 19.17316695 -0.40600586 22.89941406 C-6.47781508 29.77346498 -6.47781508 29.77346498 -11.6484375 30.54296875 C-14.88562794 30.27963981 -17.86330806 29.82970561 -21 29 C-18.11573115 25.06225707 -15.21140495 21.17867287 -12 17.5 C-7.26779343 12.04740503 -2.98097453 6.62438785 0 0 Z " fill="#EC6F66" transform="translate(234,108)"/>
<path d="M0 0 C0.99 0.66 1.98 1.32 3 2 C4.0209375 2.495 4.0209375 2.495 5.0625 3 C7 4 7 4 9 6 C8.83447266 7.99560547 8.83447266 7.99560547 8 10 C5.4590137 11.56960692 3.06235077 12.86515463 0.375 14.125 C-0.32496094 14.47175781 -1.02492187 14.81851563 -1.74609375 15.17578125 C-8.45022536 18.42212327 -14.60251996 20.28770062 -22.125 20.3125 C-23.89230469 20.33763672 -23.89230469 20.33763672 -25.6953125 20.36328125 C-29.29237465 19.96785952 -31.16425499 19.21769802 -34 17 C-34.33 16.01 -34.66 15.02 -35 14 C-35.66 14 -36.32 14 -37 14 C-37 13.01 -37 12.02 -37 11 C-36.20078125 11.10699219 -35.4015625 11.21398437 -34.578125 11.32421875 C-21.62774615 12.73781644 -11.72112945 9.25788254 0 4 C0 2.68 0 1.36 0 0 Z " fill="#918EC9" transform="translate(242,223)"/>
<path d="M0 0 C-1.59154008 10.81236751 -15.96756222 21.70080358 -24.3359375 27.96875 C-26 29 -26 29 -28 29 C-28 29.66 -28 30.32 -28 31 C-28.66 31 -29.32 31 -30 31 C-30 30.34 -30 29.68 -30 29 C-30.99 29.33 -31.98 29.66 -33 30 C-33.99 29.34 -34.98 28.68 -36 28 C-38.11280345 27.36707617 -38.11280345 27.36707617 -40 27 C-39.875 25.1875 -39.875 25.1875 -39 23 C-36.4375 21.5 -36.4375 21.5 -33 20 C-24.56713818 16.11463864 -17.33057072 10.79381287 -9.85546875 5.34228516 C-2.47071662 0 -2.47071662 0 0 0 Z " fill="#539ECA" transform="translate(292,242)"/>
<path d="M0 0 C4.39600078 0.50240009 6.90775631 1.82186065 10 5 C11.26483864 8.7154635 11.32467489 10.28880738 9.6875 13.875 C9.130625 14.57625 8.57375 15.2775 8 16 C7.34 16 6.68 16 6 16 C6 16.99 6 17.98 6 19 C3 19 0 19 -3 19 C-3 18.34 -3 17.68 -3 17 C-3.99 16.67 -4.98 16.34 -6 16 C-6.33 15.01 -6.66 14.02 -7 13 C-7.66 12.67 -8.32 12.34 -9 12 C-9 10.68 -9 9.36 -9 8 C-8.01 8 -7.02 8 -6 8 C-6.33 7.01 -6.66 6.02 -7 5 C-3.25 2 -3.25 2 -1 2 C-0.67 1.34 -0.34 0.68 0 0 Z " fill="#E98F90" transform="translate(205,324)"/>
<path d="M0 0 C0.58265625 0.22558594 1.1653125 0.45117188 1.765625 0.68359375 C0.015625 4.55859375 0.015625 4.55859375 -2.234375 5.68359375 C-3.80785254 8.40141859 -4.79329587 11.19669042 -5.734375 14.18359375 C-6.67770487 17.17764074 -7.76929945 19.90500219 -9.234375 22.68359375 C-9.234375 21.69359375 -9.234375 20.70359375 -9.234375 19.68359375 C-10.224375 19.68359375 -11.214375 19.68359375 -12.234375 19.68359375 C-11.421875 16.24609375 -11.421875 16.24609375 -10.234375 12.68359375 C-9.244375 12.35359375 -8.254375 12.02359375 -7.234375 11.68359375 C-7.894375 9.70359375 -8.554375 7.72359375 -9.234375 5.68359375 C-8.16544282 4.64769037 -7.07859012 3.63025433 -5.984375 2.62109375 C-5.38109375 2.05261719 -4.7778125 1.48414063 -4.15625 0.8984375 C-2.234375 -0.31640625 -2.234375 -0.31640625 0 0 Z M-9.234375 16.68359375 C-8.234375 18.68359375 -8.234375 18.68359375 -8.234375 18.68359375 Z " fill="#EA4A4C" transform="translate(174.234375,153.31640625)"/>
<path d="M0 0 C1.23268696 3.69806088 0.59433466 4.84773679 -0.75 8.4375 C-1.09546875 9.38496094 -1.4409375 10.33242187 -1.796875 11.30859375 C-2.94467299 13.87623277 -4.30222976 15.7802142 -6 18 C-6 18.66 -6 19.32 -6 20 C-7.96147874 21.38938077 -9.96166576 22.7260411 -12 24 C-12.66 23.67 -13.32 23.34 -14 23 C-11.32449187 18.46969176 -8.43850446 14.09750037 -5.5234375 9.71875 C-3.8726286 7.10749095 -3.8726286 7.10749095 -3.4765625 4.28125 C-3 2 -3 2 0 0 Z " fill="#33A3D0" transform="translate(341,202)"/>
<path d="M0 0 C0.33 0 0.66 0 1 0 C1.01981934 0.79696289 1.03963867 1.59392578 1.06005859 2.41503906 C1.15533248 6.02702472 1.26500307 9.63843399 1.375 13.25 C1.42140625 15.13138672 1.42140625 15.13138672 1.46875 17.05078125 C1.50742188 18.25605469 1.54609375 19.46132812 1.5859375 20.703125 C1.6173584 21.81333008 1.6487793 22.92353516 1.68115234 24.06738281 C1.98789356 26.88865042 2.54286225 28.5970009 4 31 C1 30 1 30 -0.6875 27.1875 C-2 24 -2 24 -2 20 C-1.34 20 -0.68 20 0 20 C0 13.4 0 6.8 0 0 Z " fill="#F47B79" transform="translate(141,202)"/>
<path d="M0 0 C2.125 0.375 2.125 0.375 4 1 C2.25 4.875 2.25 4.875 0 6 C-0.33 6.99 -0.66 7.98 -1 9 C-2.98 8.34 -4.96 7.68 -7 7 C-4.66666667 4.66666667 -2.33333333 2.33333333 0 0 Z " fill="#E55E66" transform="translate(172,153)"/>
<path d="M0 0 C0.33 0 0.66 0 1 0 C1 12.54 1 25.08 1 38 C0.67 38 0.34 38 0 38 C0 25.46 0 12.92 0 0 Z " fill="#FFFFFF" transform="translate(197,351)"/>
<path d="M0 0 C1.32 0.33 2.64 0.66 4 1 C1.69 3.31 -0.62 5.62 -3 8 C-3.99 7.01 -4.98 6.02 -6 5 C-4.625 3.5 -4.625 3.5 -3 2 C-2.34 2 -1.68 2 -1 2 C-0.67 1.34 -0.34 0.68 0 0 Z M-7 6 C-6.34 6.66 -5.68 7.32 -5 8 C-6.98 8.99 -6.98 8.99 -9 10 C-8.34 8.68 -7.68 7.36 -7 6 Z " fill="#59B6EC" transform="translate(323,346)"/>
<path d="M0 0 C0.598125 0.20625 1.19625 0.4125 1.8125 0.625 C1.4825 1.285 1.1525 1.945 0.8125 2.625 C3.2875 3.615 3.2875 3.615 5.8125 4.625 C4.4925 4.955 3.1725 5.285 1.8125 5.625 C1.8125 4.965 1.8125 4.305 1.8125 3.625 C-0.1675 3.955 -2.1475 4.285 -4.1875 4.625 C-4.5175 3.635 -4.8475 2.645 -5.1875 1.625 C-2.1875 -0.375 -2.1875 -0.375 0 0 Z " fill="#6973A3" transform="translate(284.1875,137.375)"/>
<path d="M0 0 C0.33 0.99 0.66 1.98 1 3 C-0.6875 5.6875 -0.6875 5.6875 -3 8 C-4.32 8 -5.64 8 -7 8 C-7 7.01 -7 6.02 -7 5 C-5.46875 3.61328125 -5.46875 3.61328125 -3.5 2.3125 C-2.8503125 1.87550781 -2.200625 1.43851562 -1.53125 0.98828125 C-1.0259375 0.66214844 -0.520625 0.33601563 0 0 Z " fill="#57BDE9" transform="translate(347,374)"/>
<path d="M0 0 C0.8971875 0.5259375 0.8971875 0.5259375 1.8125 1.0625 C0.52232586 2.04363243 -0.76969106 3.02234199 -2.0625 4 C-2.78179687 4.54527344 -3.50109375 5.09054688 -4.2421875 5.65234375 C-6.1875 7.0625 -6.1875 7.0625 -8.1875 8.0625 C-7.56094168 5.13856119 -6.7713192 2.61420871 -5.1875 0.0625 C-2.1875 -0.9375 -2.1875 -0.9375 0 0 Z " fill="#ED5A66" transform="translate(267.1875,143.9375)"/>
<path d="M0 0 C0.99 0.33 1.98 0.66 3 1 C2.67 6.94 2.34 12.88 2 19 C1.67 19 1.34 19 1 19 C0.67 12.73 0.34 6.46 0 0 Z " fill="#F63635" transform="translate(162,175)"/>
<path d="M0 0 C1.76462683 3.08809695 2 4.23312136 2 8 C1.34 8 0.68 8 0 8 C-0.33 9.32 -0.66 10.64 -1 12 C-2.45606519 7.47907032 -1.27032841 4.48351204 0 0 Z " fill="#6099C4" transform="translate(331,160)"/>
<path d="M0 0 C0 0.99 0 1.98 0 3 C-0.70125 3.12375 -1.4025 3.2475 -2.125 3.375 C-5.17656387 4.03838345 -8.05340938 4.97211955 -11 6 C-10.67 4.68 -10.34 3.36 -10 2 C-8.72125 1.855625 -7.4425 1.71125 -6.125 1.5625 C-3.74307106 1.29357254 -2.15547309 1.07773654 0 0 Z " fill="#5EB9EE" transform="translate(304,238)"/>
<path d="M0 0 C1.32 0.33 2.64 0.66 4 1 C4.144375 1.94875 4.28875 2.8975 4.4375 3.875 C4.82935399 6.8934494 4.82935399 6.8934494 6 9 C3 8 3 8 1.3125 5.0625 C0 2 0 2 0 0 Z " fill="#F56C53" transform="translate(139,224)"/>
<path d="M0 0 C0.99 0 1.98 0 3 0 C2.39816251 2.02045442 1.72693904 4.02111039 1 6 C0.01 6.495 0.01 6.495 -1 7 C-1.66 6.34 -2.32 5.68 -3 5 C-2.01 4.67 -1.02 4.34 0 4 C0 2.68 0 1.36 0 0 Z " fill="#E55753" transform="translate(167,161)"/>
<path d="M0 0 C0.598125 0.20625 1.19625 0.4125 1.8125 0.625 C0.0625 2.6875 0.0625 2.6875 -2.1875 4.625 C-4.4375 4.375 -4.4375 4.375 -6.1875 3.625 C-4.74381887 0.73763775 -3.28406529 -0.56298262 0 0 Z " fill="#EB5759" transform="translate(255.1875,155.375)"/>
<path d="M0 0 C0.66 0 1.32 0 2 0 C1.34 1.32 0.68 2.64 0 4 C-0.33 3.01 -0.66 2.02 -1 1 C-0.67 0.67 -0.34 0.34 0 0 Z M-2 4 C-1.67 5.32 -1.34 6.64 -1 8 C-2.32 8.33 -3.64 8.66 -5 9 C-4.67 8.01 -4.34 7.02 -4 6 C-3.34 6 -2.68 6 -2 6 C-2 5.34 -2 4.68 -2 4 Z " fill="#8C6CA5" transform="translate(177,150)"/>
<path d="M0 0 C1.98 0.495 1.98 0.495 4 1 C3.34 2.32 2.68 3.64 2 5 C1.01 5 0.02 5 -1 5 C-0.67 3.35 -0.34 1.7 0 0 Z " fill="#D15867" transform="translate(172,153)"/>
<path d="M0 0 C0.33 0 0.66 0 1 0 C1 2.97 1 5.94 1 9 C0.67 9 0.34 9 0 9 C0 6.03 0 3.06 0 0 Z " fill="#EFEFEF" transform="translate(271,366)"/>
<path d="M0 0 C2.97 0 5.94 0 9 0 C9 0.33 9 0.66 9 1 C6.03 1 3.06 1 0 1 C0 0.67 0 0.34 0 0 Z " fill="#26D8FF" transform="translate(276,275)"/>
<path d="M0 0 C2.64 0 5.28 0 8 0 C8 0.33 8 0.66 8 1 C5.36 1 2.72 1 0 1 C0 0.67 0 0.34 0 0 Z " fill="#2BD3FF" transform="translate(292,275)"/>
<path d="M0 0 C1 4 1 4 1 4 Z " fill="#9F9FFF" transform="translate(312,350)"/>
<path d="M0 0 C4 1 4 1 4 1 Z " fill="#FFC2C2" transform="translate(227,275)"/>
<path d="M0 0 C1 4 1 4 1 4 Z " fill="#DDDDFF" transform="translate(331,180)"/>
<path d="" fill="#2AD4FF" transform="translate(0,0)"/>
<path d="" fill="#52ADFF" transform="translate(0,0)"/>
<path d="M0 0 C3 1 3 1 3 1 Z " fill="#31CDFF" transform="translate(331,293)"/>
<path d="M0 0 C3 1 3 1 3 1 Z " fill="#FFFFFF" transform="translate(172,293)"/>
<path d="M0 0 C3 1 3 1 3 1 Z " fill="#FFD1D1" transform="translate(203,275)"/>
<path d="" fill="#3EC1FF" transform="translate(0,0)"/>
<path d="" fill="#FF9F9F" transform="translate(0,0)"/>
<path d="" fill="#00FFFF" transform="translate(0,0)"/>
<path d="" fill="#00A3FF" transform="translate(0,0)"/>
<path d="" fill="#FFD4D4" transform="translate(0,0)"/>
<path d="" fill="#FF7F7F" transform="translate(0,0)"/>
<path d="" fill="#DFDFDF" transform="translate(0,0)"/>
<path d="" fill="#FFFFFF" transform="translate(0,0)"/>
<path d="" fill="#9797CB" transform="translate(0,0)"/>
<path d="M0 0 C2 1 2 1 2 1 Z " fill="#7FAAFF" transform="translate(313,107)"/>
<path d="M0 0 C2 1 2 1 2 1 Z " fill="#45BABA" transform="translate(266,107)"/>
<path d="M0 0 C2 1 2 1 2 1 Z " fill="#FF6C6C" transform="translate(235,107)"/>
<path d="M0 0 C2 1 2 1 2 1 Z " fill="#FF8E8E" transform="translate(191,107)"/>
<path d="" fill="#8080FF" transform="translate(0,0)"/>
<path d="" fill="#FF80FF" transform="translate(0,0)"/>
<path d="" fill="#8080FF" transform="translate(0,0)"/>
<path d="" fill="#FFFFFF" transform="translate(0,0)"/>
<path d="" fill="#FFFFFF" transform="translate(0,0)"/>
<path d="" fill="#FFFFFF" transform="translate(0,0)"/>
<path d="" fill="#00FFFF" transform="translate(0,0)"/>
<path d="" fill="#808080" transform="translate(0,0)"/>
<path d="" fill="#FFFFFF" transform="translate(0,0)"/>
<path d="" fill="#FFFF00" transform="translate(0,0)"/>
<path d="" fill="#00FFFF" transform="translate(0,0)"/>
<path d="" fill="#FFFF55" transform="translate(0,0)"/>
<path d="" fill="#FFFFFF" transform="translate(0,0)"/>
<path d="" fill="#FF8080" transform="translate(0,0)"/>
<path d="" fill="#FF8080" transform="translate(0,0)"/>
<path d="" fill="#FFFFFF" transform="translate(0,0)"/>
<path d="" fill="#FF8080" transform="translate(0,0)"/>
<path d="" fill="#FFFFFF" transform="translate(0,0)"/>
<path d="" fill="#FF8080" transform="translate(0,0)"/>
<path d="" fill="#FFFF00" transform="translate(0,0)"/>
<path d="" fill="#FF8080" transform="translate(0,0)"/>
<path d="" fill="#FFFFFF" transform="translate(0,0)"/>
<path d="" fill="#00FFFF" transform="translate(0,0)"/>
<path d="" fill="#00FFFF" transform="translate(0,0)"/>
<path d="" fill="#FFA7A7" transform="translate(0,0)"/>
<path d="" fill="#FF0000" transform="translate(0,0)"/>
<path d="" fill="#FF0000" transform="translate(0,0)"/>
<path d="" fill="#FF0000" transform="translate(0,0)"/>
<path d="" fill="#FFFFFF" transform="translate(0,0)"/>
<path d="" fill="#8080FF" transform="translate(0,0)"/>
<path d="" fill="#FFFFFF" transform="translate(0,0)"/>
<path d="" fill="#EBFFFF" transform="translate(0,0)"/>
<path d="" fill="#FFBA8A" transform="translate(0,0)"/>
<path d="" fill="#8080FF" transform="translate(0,0)"/>
<path d="" fill="#FFFFFF" transform="translate(0,0)"/>
<path d="" fill="#FFFFFF" transform="translate(0,0)"/>
<path d="" fill="#FFFFFF" transform="translate(0,0)"/>
<path d="" fill="#FFFFFF" transform="translate(0,0)"/>
<path d="" fill="#8C8CFF" transform="translate(0,0)"/>
<path d="" fill="#AAAAAA" transform="translate(0,0)"/>
<path d="" fill="#8080FF" transform="translate(0,0)"/>
<path d="" fill="#51AEFF" transform="translate(0,0)"/>
<path d="" fill="#FF0000" transform="translate(0,0)"/>
<path d="" fill="#FFA758" transform="translate(0,0)"/>
<path d="" fill="#FFFFFF" transform="translate(0,0)"/>
<path d="" fill="#FFFFFF" transform="translate(0,0)"/>
<path d="" fill="#7F7F7F" transform="translate(0,0)"/>
<path d="" fill="#FF7474" transform="translate(0,0)"/>
<path d="" fill="#59A6FF" transform="translate(0,0)"/>
<path d="" fill="#FF5858" transform="translate(0,0)"/>
<path d="" fill="#FFA2A2" transform="translate(0,0)"/>
</svg>
