<svg width="34" height="34" viewBox="0 0 34 34" fill="none" xmlns="http://www.w3.org/2000/svg">
<path d="M5.54049 16.5175C5.54049 9.54534 11.199 3.89551 18.1765 3.89551C25.1539 3.89551 30.8125 9.54534 30.8125 16.5175V16.9947C30.8125 17.8775 30.7271 18.7345 30.5651 19.5593C29.3456 15.4166 25.5109 12.3955 20.9746 12.3955C15.458 12.3955 10.9791 16.8632 10.9791 22.3827V22.6634C10.9791 25.2921 11.9437 27.6268 13.4984 29.4039C13.4546 29.3891 13.4107 29.374 13.3669 29.3587L12.4765 29.0474L10.4622 28.6751C7.58575 28.313 5.67649 27.7226 4.55218 27.0923C4.01743 26.7926 3.50615 26.3995 3.25446 25.8812C3.11635 25.5968 3.03067 25.2141 3.15722 24.8052C3.28395 24.3957 3.57092 24.13 3.84312 23.9772C5.00714 23.3236 5.53518 22.5782 5.78294 22.0512C5.90988 21.7812 5.96948 21.5549 5.99734 21.4078C6.00854 21.3487 6.01454 21.3028 6.0177 21.2725L5.54049 16.5713V16.5175Z" fill="white"/>
<path fill-rule="evenodd" clip-rule="evenodd" d="M28.845 22.4365L28.5674 25.1713L28.5686 25.1779C28.5791 25.2331 28.6038 25.3304 28.6608 25.4517C28.7687 25.6812 29.0167 26.0505 29.6201 26.3893C29.8515 26.5192 30.1117 26.7548 30.2274 27.1285C30.3428 27.5016 30.2618 27.8429 30.1458 28.0819C29.9382 28.5093 29.5407 28.7954 29.2028 28.9848C28.4726 29.3941 27.2899 29.7504 25.5796 29.9667L24.4401 30.1773L23.9481 30.3493C18.65 32.2014 13.1041 28.2744 13.1041 22.6634V22.3827C13.1041 18.0393 16.629 14.5205 20.9746 14.5205C25.3201 14.5205 28.845 18.0393 28.845 22.3827V22.4365ZM17.7792 24.4372C18.366 24.4372 18.8417 23.9615 18.8417 23.3747C18.8417 22.7879 18.366 22.3122 17.7792 22.3122C17.1924 22.3122 16.7167 22.7879 16.7167 23.3747C16.7167 23.9615 17.1924 24.4372 17.7792 24.4372ZM21.3209 24.4372C21.9077 24.4372 22.3834 23.9615 22.3834 23.3747C22.3834 22.7879 21.9077 22.3122 21.3209 22.3122C20.7341 22.3122 20.2584 22.7879 20.2584 23.3747C20.2584 23.9615 20.7341 24.4372 21.3209 24.4372ZM25.925 23.3747C25.925 23.9615 25.4493 24.4372 24.8625 24.4372C24.2757 24.4372 23.8 23.9615 23.8 23.3747C23.8 22.7879 24.2757 22.3122 24.8625 22.3122C25.4493 22.3122 25.925 22.7879 25.925 23.3747Z" fill="white"/>
</svg>
