<svg width="34" height="34" viewBox="0 0 34 34" fill="none" xmlns="http://www.w3.org/2000/svg">
<path d="M27.9793 4.25C27.9793 3.6632 27.5036 3.1875 26.9168 3.1875C26.33 3.1875 25.8543 3.6632 25.8543 4.25V6.02083H24.0835C23.4967 6.02083 23.021 6.49653 23.021 7.08333C23.021 7.67014 23.4967 8.14583 24.0835 8.14583H25.8543V9.91667C25.8543 10.5035 26.33 10.9792 26.9168 10.9792C27.5036 10.9792 27.9793 10.5035 27.9793 9.91667V8.14583H29.7502C30.337 8.14583 30.8127 7.67014 30.8127 7.08333C30.8127 6.49653 30.337 6.02083 29.7502 6.02083H27.9793V4.25Z" fill="white"/>
<path d="M18.0519 6.83513C18.9733 6.18501 20.4247 5.34809 22.0995 5.06058C21.5753 5.57476 21.2502 6.29107 21.2502 7.08333C21.2502 8.64814 22.5187 9.91667 24.0835 9.91667C24.0835 11.4815 25.352 12.75 26.9168 12.75C28.4816 12.75 29.7502 11.4815 29.7502 9.91667C29.9931 9.91667 30.2288 9.8861 30.4538 9.82861C31.1943 11.6301 31.3866 13.7417 30.8955 15.8213C29.5127 21.677 21.4228 26.8676 18.2635 28.6987C17.4744 29.156 16.5259 29.156 15.7368 28.6987C12.5775 26.8676 4.48766 21.677 3.10482 15.8213C1.85616 10.5337 5.02519 5.03974 10.3916 4.96079C10.5023 4.95916 10.6148 4.95833 10.7288 4.95833C12.8891 4.95833 14.8178 6.03737 15.9484 6.83513C16.5661 7.27095 17.4342 7.27095 18.0519 6.83513Z" fill="white"/>
</svg>
