<svg width="34" height="34" viewBox="0 0 34 34" fill="none" xmlns="http://www.w3.org/2000/svg">
<path d="M21.25 21.2503C21.25 25.9447 17.4444 29.7503 12.75 29.7503C8.05558 29.7503 4.25 25.9447 4.25 21.2503C4.25 16.5559 8.05558 12.7503 12.75 12.7503C17.4444 12.7503 21.25 16.5559 21.25 21.2503Z" fill="white"/>
<path d="M22.5805 22.5635C26.6429 21.9249 29.75 18.4088 29.75 14.167C29.75 9.47257 25.9444 5.66699 21.25 5.66699C17.5448 5.66699 14.3933 8.03773 13.2296 11.3451C18.4837 11.5953 22.6667 15.9343 22.6667 21.2503C22.6667 21.6955 22.6373 22.1338 22.5805 22.5635Z" fill="white"/>
</svg>
