<svg width="35" height="35" viewBox="0 0 35 35" fill="none" xmlns="http://www.w3.org/2000/svg">
<path fill-rule="evenodd" clip-rule="evenodd" d="M13.856 5.83198L5.58931 12.4453C3.93913 13.7655 3.13198 15.8749 3.4794 17.9594L5.02101 27.2091C5.48981 30.0218 7.92342 32.0834 10.775 32.0834H24.2252C27.0767 32.0834 29.5103 30.0218 29.9791 27.2091L31.5207 17.9594C31.8682 15.8749 31.061 13.7655 29.4108 12.4453L21.1441 5.83198C19.0137 4.12762 15.9865 4.12762 13.856 5.83198ZM20.4168 27.3437C21.0208 27.3437 21.5105 26.854 21.5105 26.25C21.5105 25.6459 21.0208 25.1562 20.4168 25.1562H14.5834C13.9794 25.1562 13.4897 25.6459 13.4897 26.25C13.4897 26.854 13.9794 27.3437 14.5834 27.3437H20.4168Z" fill="#E45A92"/>
</svg>
