<svg width="19" height="19" viewBox="0 0 19 19" fill="none" xmlns="http://www.w3.org/2000/svg">
<path fill-rule="evenodd" clip-rule="evenodd" d="M1.5926 1.1059L0.733164 2.82477C0.0429205 4.20526 -0.250312 5.7694 0.252677 7.22858C0.856857 8.9813 2.06484 11.4932 4.43566 13.864C6.80647 16.2348 9.31835 17.4428 11.0711 18.047C12.5303 18.55 14.0944 18.2567 15.4749 17.5665L17.2512 16.6783C18.4555 16.0762 18.7328 14.4802 17.8022 13.5071L15.8427 11.4583C15.1561 10.7403 14.0433 10.6436 13.2431 11.2324C12.3457 11.8926 11.1458 12.0052 10.2053 11.4081C9.64403 11.0519 9.04675 10.6267 8.62303 10.2029C8.13138 9.7113 7.63772 8.986 7.25212 8.35445C6.75958 7.54773 6.76661 6.54736 7.18931 5.70195L7.45204 5.17649C7.83703 4.40652 7.68612 3.47657 7.0774 2.86785L4.79567 0.586115C3.83038 -0.379167 2.2031 -0.115093 1.5926 1.1059ZM2.93424 1.77672L2.07481 3.4956C1.4991 4.64701 1.3404 5.78127 1.67079 6.73974C2.21922 8.33076 3.32227 10.6293 5.49632 12.8033C7.67036 14.9774 9.9689 16.0804 11.5599 16.6289C12.5184 16.9593 13.6526 16.8006 14.8041 16.2249L16.5804 15.3367C16.8815 15.1862 16.9508 14.7872 16.7181 14.5439L14.7587 12.495C14.5932 12.322 14.3249 12.2987 14.132 12.4406C12.8035 13.4181 10.9312 13.6456 9.40141 12.6746C8.81223 12.3006 8.10404 11.8053 7.56237 11.2636C6.93951 10.6407 6.37059 9.78913 5.97188 9.1361C5.17859 7.8368 5.22203 6.28242 5.84767 5.03113L6.1104 4.50567C6.20665 4.31318 6.16892 4.08069 6.01674 3.92851L3.73501 1.64678C3.49369 1.40546 3.08687 1.47147 2.93424 1.77672Z" fill="#363538"/>
<path d="M13.2112 4.74532C12.5577 4.09182 11.7637 3.73992 11.1606 3.82606C10.8873 3.86511 10.634 3.67516 10.5949 3.40179C10.5559 3.12843 10.7458 2.87516 11.0192 2.83611C12.0661 2.68658 13.1576 3.2775 13.9183 4.03822C14.679 4.79893 15.27 5.89051 15.1204 6.93736C15.0813 7.21073 14.8281 7.40068 14.5547 7.36162C14.2813 7.32257 14.0914 7.0693 14.1305 6.79594C14.2166 6.19287 13.8647 5.39882 13.2112 4.74532Z" fill="#363538"/>
<path d="M10.5601 5.91991C11.5241 5.55426 12.4023 6.43238 12.0366 7.39643C11.9387 7.65462 12.0686 7.94332 12.3268 8.04125C12.585 8.13919 12.8737 8.00928 12.9716 7.75108C13.643 5.98097 11.9756 4.31351 10.2055 4.98491C9.94729 5.08284 9.81738 5.37154 9.91531 5.62973C10.0132 5.88793 10.3019 6.01784 10.5601 5.91991Z" fill="#363538"/>
</svg>
