<svg width="20" height="18" viewBox="0 0 20 18" fill="none" xmlns="http://www.w3.org/2000/svg">
<path fill-rule="evenodd" clip-rule="evenodd" d="M4.26266 0H14.9193C17.2735 0 19.1819 1.90846 19.1819 4.26266V11.0462C19.1819 13.1853 17.4479 14.9193 15.3089 14.9193C14.3707 14.9193 13.4645 15.2598 12.7584 15.8776L10.9945 17.4211C10.1909 18.1242 8.99105 18.1242 8.18748 17.4211L6.4235 15.8776C5.71748 15.2598 4.81122 14.9193 3.87307 14.9193C1.73403 14.9193 0 13.1853 0 11.0462V4.26265C0 1.90846 1.90846 0 4.26266 0ZM5.32832 9.05814C5.91687 9.05814 6.39398 8.58103 6.39398 7.99248C6.39398 7.40393 5.91687 6.92682 5.32832 6.92682C4.73977 6.92682 4.26266 7.40393 4.26266 7.99248C4.26266 8.58103 4.73977 9.05814 5.32832 9.05814ZM10.6566 7.99248C10.6566 8.58103 10.1795 9.05814 9.59097 9.05814C9.00242 9.05814 8.52531 8.58103 8.52531 7.99248C8.52531 7.40393 9.00242 6.92682 9.59097 6.92682C10.1795 6.92682 10.6566 7.40393 10.6566 7.99248ZM13.8536 9.05814C14.4422 9.05814 14.9193 8.58103 14.9193 7.99248C14.9193 7.40393 14.4422 6.92682 13.8536 6.92682C13.2651 6.92682 12.788 7.40393 12.788 7.99248C12.788 8.58103 13.2651 9.05814 13.8536 9.05814Z" fill="white"/>
</svg>
