<svg width="40" height="40" viewBox="0 0 40 40" fill="none" xmlns="http://www.w3.org/2000/svg">
<path d="M25.0353 17.5662C25.5318 17.0865 25.5454 16.2952 25.0657 15.7987C24.5861 15.3022 23.7947 15.2886 23.2982 15.7682L18.995 19.9256L16.7057 17.695C16.2113 17.2132 15.4199 17.2235 14.9381 17.718C14.4564 18.2124 14.4666 19.0038 14.9611 19.4856L18.119 22.5625C18.6029 23.034 19.3739 23.0356 19.8598 22.5662L25.0353 17.5662Z" fill="white"/>
<path fill-rule="evenodd" clip-rule="evenodd" d="M21.6094 2.60237C20.5718 2.21327 19.4284 2.21327 18.3908 2.60237L8.39076 6.35238C6.60198 7.02317 5.41675 8.73296 5.41675 10.6436L5.41675 20.0005C5.41677 23.5041 7.83667 26.7849 10.3913 29.3205C13.0039 31.9136 16.0459 34.0075 17.822 35.1387C19.1462 35.9821 20.8116 36.0246 22.1757 35.2278C23.9706 34.1794 27.0175 32.2235 29.6313 29.6599C32.2096 27.1313 34.5834 23.7991 34.5834 20.0005V10.6436C34.5834 8.73297 33.3982 7.02317 31.6094 6.35237L21.6094 2.60237ZM19.2686 4.94319C19.7402 4.76633 20.26 4.76633 20.7316 4.94319L30.7316 8.69319C31.5448 8.99816 32.0834 9.77531 32.0834 10.6436V20.0005C32.0834 22.7677 30.3188 25.4839 27.8808 27.8751C25.4784 30.2313 22.6312 32.0665 20.9148 33.0691C20.368 33.3885 19.7075 33.3756 19.165 33.0301C17.4525 31.9394 14.5811 29.9567 12.1525 27.5462C9.66588 25.0781 7.91677 22.4279 7.91675 20.0005L7.91675 10.6436C7.91675 9.77531 8.45534 8.99816 9.26857 8.6932L19.2686 4.94319Z" fill="white"/>
</svg>
