<svg width="22" height="22" viewBox="0 0 22 22" fill="none" xmlns="http://www.w3.org/2000/svg">
<path fill-rule="evenodd" clip-rule="evenodd" d="M16.406 0.929191C16.1876 0.580284 15.8659 0.308137 15.4856 0.150634C15.1053 -0.00686906 14.6854 -0.0418923 14.2843 0.0504406L11.4375 0.704357C11.1457 0.771414 10.8425 0.771414 10.5508 0.704357L7.70396 0.0504406C7.30284 -0.0418923 6.88292 -0.00686906 6.50264 0.150634C6.12236 0.308137 5.80065 0.580284 5.58229 0.929191L4.03062 3.40552C3.87229 3.65886 3.65854 3.87261 3.40521 4.03252L0.928873 5.58419C0.580568 5.80236 0.30882 6.12355 0.151351 6.50318C-0.00611807 6.88281 -0.0414979 7.30204 0.0501225 7.70269L0.704039 10.5527C0.770853 10.8439 0.770853 11.1465 0.704039 11.4378L0.0501225 14.2862C-0.041854 14.6871 -0.00665219 15.1067 0.150834 15.4866C0.30832 15.8666 0.580267 16.188 0.928873 16.4063L3.40521 17.9579C3.65854 18.1163 3.87229 18.33 4.03221 18.5834L5.58387 21.0597C6.03037 21.7738 6.88221 22.1269 7.70396 21.9384L10.5508 21.2845C10.8425 21.2175 11.1457 21.2175 11.4375 21.2845L14.2859 21.9384C14.6868 22.0304 15.1063 21.9952 15.4863 21.8377C15.8662 21.6802 16.1877 21.4083 16.406 21.0597L17.9576 18.5834C18.116 18.33 18.3297 18.1163 18.583 17.9579L21.061 16.4063C21.4096 16.1877 21.6814 15.8659 21.8386 15.4856C21.9958 15.1054 22.0306 14.6856 21.9381 14.2846L21.2858 11.4378C21.2187 11.146 21.2187 10.8429 21.2858 10.5511L21.9397 7.70269C22.0318 7.30197 21.9969 6.88251 21.8397 6.50257C21.6825 6.12264 21.4109 5.80109 21.0625 5.58261L18.5846 4.03094C18.3316 3.87232 18.1178 3.65851 17.9592 3.40552L16.406 0.929191ZM15.6095 7.46361C15.7075 7.28353 15.7317 7.07248 15.6772 6.87488C15.6227 6.67727 15.4937 6.50852 15.3173 6.40411C15.1409 6.2997 14.9309 6.26779 14.7314 6.31509C14.532 6.36238 14.3586 6.48519 14.2479 6.65769L10.1075 13.6655L7.60737 11.2715C7.5332 11.1954 7.44446 11.1349 7.34642 11.0938C7.24839 11.0527 7.14308 11.0317 7.03678 11.0322C6.93048 11.0327 6.82535 11.0545 6.72768 11.0965C6.63001 11.1385 6.5418 11.1997 6.46829 11.2765C6.39479 11.3533 6.33751 11.4441 6.29986 11.5435C6.26222 11.6429 6.24498 11.7489 6.24918 11.8551C6.25338 11.9614 6.27893 12.0657 6.32431 12.1618C6.36968 12.2579 6.43395 12.3439 6.51329 12.4147L9.73379 15.5006C9.81998 15.583 9.92368 15.6449 10.0371 15.6816C10.1506 15.7183 10.2709 15.729 10.389 15.7127C10.5072 15.6964 10.6201 15.6536 10.7194 15.5875C10.8187 15.5215 10.9018 15.4339 10.9625 15.3312L15.6095 7.46361Z" fill="#5A6CE4"/>
</svg>
