<svg width="134" height="29" viewBox="0 0 134 29" fill="none" xmlns="http://www.w3.org/2000/svg">
<rect width="134" height="29" rx="8" fill="url(#paint0_linear_369_35036)"/>
<path d="M35.89 19.665C35.49 19.665 35.07 19.635 34.63 19.575C34.2 19.525 33.79 19.445 33.4 19.335C33.01 19.225 32.66 19.095 32.35 18.945C32.08 18.815 31.89 18.645 31.78 18.435C31.67 18.215 31.63 17.985 31.66 17.745C31.69 17.505 31.775 17.295 31.915 17.115C32.055 16.925 32.24 16.8 32.47 16.74C32.7 16.67 32.96 16.7 33.25 16.83C33.63 17.01 34.06 17.15 34.54 17.25C35.02 17.35 35.47 17.4 35.89 17.4C36.55 17.4 37.01 17.315 37.27 17.145C37.54 16.965 37.675 16.745 37.675 16.485C37.675 16.255 37.58 16.07 37.39 15.93C37.21 15.79 36.885 15.67 36.415 15.57L34.66 15.195C33.7 14.995 32.985 14.645 32.515 14.145C32.045 13.645 31.81 13 31.81 12.21C31.81 11.69 31.915 11.22 32.125 10.8C32.345 10.37 32.65 10.005 33.04 9.705C33.44 9.405 33.91 9.175 34.45 9.015C35 8.845 35.61 8.76 36.28 8.76C36.8 8.76 37.325 8.82 37.855 8.94C38.395 9.05 38.86 9.22 39.25 9.45C39.48 9.57 39.645 9.735 39.745 9.945C39.845 10.155 39.885 10.375 39.865 10.605C39.845 10.825 39.765 11.02 39.625 11.19C39.495 11.36 39.315 11.475 39.085 11.535C38.865 11.585 38.6 11.545 38.29 11.415C38 11.285 37.67 11.19 37.3 11.13C36.94 11.06 36.59 11.025 36.25 11.025C35.88 11.025 35.565 11.07 35.305 11.16C35.045 11.24 34.845 11.36 34.705 11.52C34.575 11.68 34.51 11.865 34.51 12.075C34.51 12.285 34.595 12.465 34.765 12.615C34.945 12.755 35.27 12.875 35.74 12.975L37.48 13.35C38.45 13.56 39.175 13.905 39.655 14.385C40.135 14.865 40.375 15.49 40.375 16.26C40.375 16.78 40.27 17.25 40.06 17.67C39.85 18.09 39.55 18.45 39.16 18.75C38.77 19.04 38.3 19.265 37.75 19.425C37.2 19.585 36.58 19.665 35.89 19.665ZM44.3105 19.665C43.6705 19.665 43.1455 19.55 42.7355 19.32C42.3255 19.08 42.0155 18.725 41.8055 18.255C41.6055 17.785 41.5055 17.19 41.5055 16.47V13.32C41.5055 12.88 41.6205 12.55 41.8505 12.33C42.0805 12.1 42.4105 11.985 42.8405 11.985C43.2705 11.985 43.6005 12.1 43.8305 12.33C44.0605 12.55 44.1755 12.88 44.1755 13.32V16.545C44.1755 16.905 44.2505 17.175 44.4005 17.355C44.5505 17.535 44.7855 17.625 45.1055 17.625C45.4655 17.625 45.7605 17.495 45.9905 17.235C46.2205 16.975 46.3355 16.63 46.3355 16.2V13.32C46.3355 12.88 46.4505 12.55 46.6805 12.33C46.9105 12.1 47.2405 11.985 47.6705 11.985C48.1005 11.985 48.4305 12.1 48.6605 12.33C48.8905 12.55 49.0055 12.88 49.0055 13.32V18.285C49.0055 19.185 48.5755 19.635 47.7155 19.635C47.2955 19.635 46.9705 19.52 46.7405 19.29C46.5105 19.06 46.3955 18.725 46.3955 18.285V17.415L46.6355 18.15C46.4155 18.64 46.1055 19.015 45.7055 19.275C45.3155 19.535 44.8505 19.665 44.3105 19.665ZM55.4193 19.665C54.8493 19.665 54.3393 19.53 53.8893 19.26C53.4493 18.98 53.1593 18.615 53.0193 18.165L53.1843 17.55V18.285C53.1843 18.725 53.0693 19.06 52.8393 19.29C52.6193 19.52 52.2993 19.635 51.8793 19.635C51.4493 19.635 51.1193 19.52 50.8893 19.29C50.6693 19.06 50.5593 18.725 50.5593 18.285V10.14C50.5593 9.7 50.6743 9.365 50.9043 9.135C51.1343 8.905 51.4593 8.79 51.8793 8.79C52.3093 8.79 52.6393 8.905 52.8693 9.135C53.1093 9.365 53.2293 9.7 53.2293 10.14V13.35H53.0493C53.1993 12.94 53.4943 12.605 53.9343 12.345C54.3743 12.085 54.8693 11.955 55.4193 11.955C56.0593 11.955 56.6193 12.11 57.0993 12.42C57.5893 12.73 57.9693 13.17 58.2393 13.74C58.5093 14.31 58.6443 15 58.6443 15.81C58.6443 16.6 58.5093 17.285 58.2393 17.865C57.9693 18.445 57.5893 18.89 57.0993 19.2C56.6193 19.51 56.0593 19.665 55.4193 19.665ZM54.5793 17.7C54.8493 17.7 55.0843 17.635 55.2843 17.505C55.4943 17.365 55.6593 17.16 55.7793 16.89C55.8993 16.61 55.9593 16.25 55.9593 15.81C55.9593 15.14 55.8293 14.66 55.5693 14.37C55.3093 14.07 54.9793 13.92 54.5793 13.92C54.3093 13.92 54.0693 13.985 53.8593 14.115C53.6493 14.245 53.4843 14.45 53.3643 14.73C53.2443 15 53.1843 15.36 53.1843 15.81C53.1843 16.47 53.3143 16.95 53.5743 17.25C53.8343 17.55 54.1693 17.7 54.5793 17.7ZM62.8011 19.665C62.3611 19.665 61.9111 19.63 61.4511 19.56C61.0011 19.5 60.5911 19.385 60.2211 19.215C59.9711 19.115 59.7911 18.98 59.6811 18.81C59.5811 18.64 59.5311 18.46 59.5311 18.27C59.5411 18.08 59.5961 17.91 59.6961 17.76C59.8061 17.6 59.9461 17.49 60.1161 17.43C60.2961 17.36 60.4961 17.365 60.7161 17.445C61.1361 17.595 61.5111 17.705 61.8411 17.775C62.1811 17.835 62.5061 17.865 62.8161 17.865C63.1861 17.865 63.4511 17.815 63.6111 17.715C63.7711 17.605 63.8511 17.465 63.8511 17.295C63.8511 17.145 63.7961 17.03 63.6861 16.95C63.5861 16.87 63.4411 16.815 63.2511 16.785L61.5861 16.515C60.9661 16.405 60.4861 16.18 60.1461 15.84C59.8061 15.49 59.6361 15.035 59.6361 14.475C59.6361 13.955 59.7811 13.51 60.0711 13.14C60.3711 12.76 60.7761 12.47 61.2861 12.27C61.8061 12.06 62.4011 11.955 63.0711 11.955C63.5211 11.955 63.9311 11.99 64.3011 12.06C64.6711 12.12 65.0311 12.235 65.3811 12.405C65.6011 12.495 65.7561 12.625 65.8461 12.795C65.9361 12.965 65.9711 13.145 65.9511 13.335C65.9311 13.515 65.8661 13.685 65.7561 13.845C65.6561 13.995 65.5161 14.1 65.3361 14.16C65.1561 14.21 64.9461 14.195 64.7061 14.115C64.3761 13.985 64.0811 13.89 63.8211 13.83C63.5711 13.77 63.3361 13.74 63.1161 13.74C62.7061 13.74 62.4161 13.795 62.2461 13.905C62.0761 14.015 61.9911 14.155 61.9911 14.325C61.9911 14.455 62.0361 14.565 62.1261 14.655C62.2161 14.735 62.3561 14.79 62.5461 14.82L64.2111 15.105C64.8511 15.205 65.3411 15.425 65.6811 15.765C66.0311 16.095 66.2061 16.545 66.2061 17.115C66.2061 17.925 65.8961 18.555 65.2761 19.005C64.6561 19.445 63.8311 19.665 62.8011 19.665ZM71.0675 19.665C70.2375 19.665 69.5125 19.51 68.8925 19.2C68.2825 18.89 67.8075 18.445 67.4675 17.865C67.1275 17.275 66.9575 16.585 66.9575 15.795C66.9575 15.195 67.0525 14.66 67.2425 14.19C67.4325 13.71 67.7075 13.305 68.0675 12.975C68.4375 12.645 68.8725 12.395 69.3725 12.225C69.8825 12.045 70.4475 11.955 71.0675 11.955C71.3575 11.955 71.6625 11.985 71.9825 12.045C72.3025 12.095 72.6325 12.195 72.9725 12.345C73.2125 12.435 73.3775 12.575 73.4675 12.765C73.5675 12.945 73.6075 13.14 73.5875 13.35C73.5775 13.56 73.5175 13.75 73.4075 13.92C73.3075 14.09 73.1625 14.205 72.9725 14.265C72.7925 14.325 72.5875 14.3 72.3575 14.19C72.1975 14.11 72.0275 14.055 71.8475 14.025C71.6775 13.985 71.5125 13.965 71.3525 13.965C71.0825 13.965 70.8425 14.005 70.6325 14.085C70.4325 14.165 70.2625 14.285 70.1225 14.445C69.9825 14.595 69.8725 14.785 69.7925 15.015C69.7225 15.245 69.6875 15.505 69.6875 15.795C69.6875 16.375 69.8325 16.83 70.1225 17.16C70.4125 17.49 70.8225 17.655 71.3525 17.655C71.5125 17.655 71.6775 17.64 71.8475 17.61C72.0175 17.57 72.1875 17.51 72.3575 17.43C72.5875 17.32 72.7925 17.3 72.9725 17.37C73.1525 17.43 73.2975 17.545 73.4075 17.715C73.5175 17.885 73.5775 18.075 73.5875 18.285C73.5975 18.485 73.5525 18.68 73.4525 18.87C73.3525 19.05 73.1825 19.185 72.9425 19.275C72.6125 19.425 72.2875 19.525 71.9675 19.575C71.6575 19.635 71.3575 19.665 71.0675 19.665ZM75.9331 19.635C75.4931 19.635 75.1531 19.52 74.9131 19.29C74.6831 19.06 74.5681 18.725 74.5681 18.285V13.32C74.5681 12.89 74.6781 12.56 74.8981 12.33C75.1281 12.1 75.4531 11.985 75.8731 11.985C76.2931 11.985 76.6131 12.1 76.8331 12.33C77.0531 12.56 77.1631 12.89 77.1631 13.32V13.935H77.0131C77.1131 13.335 77.3681 12.86 77.7781 12.51C78.1981 12.16 78.7181 11.975 79.3381 11.955C79.6281 11.945 79.8431 12.02 79.9831 12.18C80.1331 12.33 80.2131 12.615 80.2231 13.035C80.2231 13.395 80.1481 13.68 79.9981 13.89C79.8481 14.1 79.5631 14.225 79.1431 14.265L78.7981 14.295C78.2681 14.345 77.8831 14.495 77.6431 14.745C77.4031 14.985 77.2831 15.345 77.2831 15.825V18.285C77.2831 18.725 77.1681 19.06 76.9381 19.29C76.7081 19.52 76.3731 19.635 75.9331 19.635ZM82.392 19.635C81.972 19.635 81.647 19.51 81.417 19.26C81.187 19.01 81.072 18.65 81.072 18.18V13.44C81.072 12.97 81.187 12.61 81.417 12.36C81.647 12.11 81.972 11.985 82.392 11.985C82.822 11.985 83.152 12.11 83.382 12.36C83.622 12.61 83.742 12.97 83.742 13.44V18.18C83.742 18.65 83.627 19.01 83.397 19.26C83.167 19.51 82.832 19.635 82.392 19.635ZM82.392 10.92C81.922 10.92 81.557 10.81 81.297 10.59C81.047 10.37 80.922 10.05 80.922 9.63C80.922 9.22 81.047 8.905 81.297 8.685C81.557 8.465 81.922 8.355 82.392 8.355C82.882 8.355 83.252 8.465 83.502 8.685C83.752 8.905 83.877 9.22 83.877 9.63C83.877 10.05 83.752 10.37 83.502 10.59C83.252 10.81 82.882 10.92 82.392 10.92ZM90.1507 19.665C89.5807 19.665 89.0707 19.53 88.6207 19.26C88.1807 18.98 87.8907 18.615 87.7507 18.165L87.9157 17.55V18.285C87.9157 18.725 87.8007 19.06 87.5707 19.29C87.3507 19.52 87.0307 19.635 86.6107 19.635C86.1807 19.635 85.8507 19.52 85.6207 19.29C85.4007 19.06 85.2907 18.725 85.2907 18.285V10.14C85.2907 9.7 85.4057 9.365 85.6357 9.135C85.8657 8.905 86.1907 8.79 86.6107 8.79C87.0407 8.79 87.3707 8.905 87.6007 9.135C87.8407 9.365 87.9607 9.7 87.9607 10.14V13.35H87.7807C87.9307 12.94 88.2257 12.605 88.6657 12.345C89.1057 12.085 89.6007 11.955 90.1507 11.955C90.7907 11.955 91.3507 12.11 91.8307 12.42C92.3207 12.73 92.7007 13.17 92.9707 13.74C93.2407 14.31 93.3757 15 93.3757 15.81C93.3757 16.6 93.2407 17.285 92.9707 17.865C92.7007 18.445 92.3207 18.89 91.8307 19.2C91.3507 19.51 90.7907 19.665 90.1507 19.665ZM89.3107 17.7C89.5807 17.7 89.8157 17.635 90.0157 17.505C90.2257 17.365 90.3907 17.16 90.5107 16.89C90.6307 16.61 90.6907 16.25 90.6907 15.81C90.6907 15.14 90.5607 14.66 90.3007 14.37C90.0407 14.07 89.7107 13.92 89.3107 13.92C89.0407 13.92 88.8007 13.985 88.5907 14.115C88.3807 14.245 88.2157 14.45 88.0957 14.73C87.9757 15 87.9157 15.36 87.9157 15.81C87.9157 16.47 88.0457 16.95 88.3057 17.25C88.5657 17.55 88.9007 17.7 89.3107 17.7ZM98.6125 19.665C97.7125 19.665 96.9325 19.51 96.2725 19.2C95.6225 18.88 95.1225 18.43 94.7725 17.85C94.4225 17.27 94.2475 16.585 94.2475 15.795C94.2475 15.035 94.4125 14.37 94.7425 13.8C95.0825 13.22 95.5425 12.77 96.1225 12.45C96.7125 12.12 97.3825 11.955 98.1325 11.955C98.6825 11.955 99.1825 12.045 99.6325 12.225C100.083 12.395 100.468 12.65 100.788 12.99C101.108 13.32 101.348 13.72 101.508 14.19C101.678 14.66 101.763 15.185 101.763 15.765C101.763 15.965 101.708 16.115 101.598 16.215C101.488 16.305 101.313 16.35 101.073 16.35H96.4825V15.09H99.8125L99.5725 15.285C99.5725 14.915 99.5225 14.615 99.4225 14.385C99.3225 14.155 99.1725 13.98 98.9725 13.86C98.7825 13.74 98.5425 13.68 98.2525 13.68C97.9425 13.68 97.6725 13.755 97.4425 13.905C97.2225 14.045 97.0525 14.255 96.9325 14.535C96.8125 14.815 96.7525 15.165 96.7525 15.585V15.72C96.7525 16.43 96.9075 16.94 97.2175 17.25C97.5375 17.55 98.0275 17.7 98.6875 17.7C98.9075 17.7 99.1575 17.675 99.4375 17.625C99.7275 17.565 100.003 17.485 100.263 17.385C100.523 17.285 100.748 17.27 100.938 17.34C101.128 17.4 101.273 17.51 101.373 17.67C101.483 17.82 101.543 17.995 101.553 18.195C101.563 18.385 101.518 18.575 101.418 18.765C101.318 18.945 101.153 19.085 100.923 19.185C100.573 19.345 100.198 19.465 99.7975 19.545C99.4075 19.625 99.0125 19.665 98.6125 19.665Z" fill="white"/>
<defs>
<linearGradient id="paint0_linear_369_35036" x1="-47.3737" y1="-63" x2="112.283" y2="103.447" gradientUnits="userSpaceOnUse">
<stop offset="0.329461" stop-color="#3E1E68"/>
<stop offset="0.389423" stop-color="#5D2F77"/>
<stop offset="0.843894" stop-color="#E52E83"/>
</linearGradient>
</defs>
</svg>
